<svg width="43" height="50" viewBox="0 0 43 50" fill="none" xmlns="http://www.w3.org/2000/svg">
<path d="M5.20472 22.5976C3.8995 22.4138 2.75053 23.1675 2.70457 24.5463C2.65861 25.8056 3.71566 26.7891 4.96574 26.642C5.37937 26.5961 5.72865 26.3203 5.72865 25.8791C5.72865 25.5022 5.37937 25.0702 4.96574 25.1162C4.81867 25.1346 4.61645 25.1346 4.55211 25.1162C4.50615 25.107 4.42343 25.061 4.37747 25.0151C4.29474 24.9324 4.24878 24.7853 4.23959 24.629C4.23959 24.4911 4.30393 24.2889 4.34989 24.2246C4.46019 24.0959 4.55211 24.0408 4.80029 24.0775C5.21391 24.1327 5.61835 23.9764 5.73785 23.5444C5.83896 23.1859 5.60916 22.662 5.20472 22.6068V22.5976Z" fill="#6E8752"/>
<path d="M28.9834 38.5548C26.3637 39.9703 22.972 37.9205 22.9536 34.9608C22.9536 33.9773 21.4186 33.9773 21.4278 34.9608C21.4554 39.0971 26.1248 41.827 29.7555 39.8692C30.6195 39.4004 29.8474 38.086 28.9834 38.5456V38.5548Z" fill="#6E8752"/>
<path d="M38.9934 19.5458V17.7166C39.2507 17.974 39.4438 18.3049 39.5449 18.7001C39.7747 19.6561 41.2545 19.2516 41.0155 18.2957C40.7306 17.1375 39.9493 16.3287 38.9934 15.915V14.3616C41.3832 12.128 41.9899 8.42378 40.7858 5.43646C40.1791 3.91982 39.1496 2.6146 37.7433 1.76895C35.859 0.63837 33.6713 0.426962 31.5389 0.757864C30.3899 0.932508 29.2869 1.2726 28.2114 1.70461C27.7151 1.89764 27.136 2.20097 26.5937 2.1642C26.0238 2.11824 25.6102 1.64946 25.1966 1.30937C23.7167 0.105249 21.7313 -0.299188 19.8929 0.224742C18.9738 0.482111 18.1649 0.969273 17.4755 1.62189C17.3192 1.76895 17.2365 1.91602 17.0711 1.91602C16.8964 1.91602 16.6023 1.75057 16.4368 1.70461C16.0048 1.57593 15.5636 1.5024 15.1132 1.44725C13.6058 1.28179 12.1075 1.70461 10.885 2.59621C8.43082 4.39779 7.15317 7.48622 6.50056 10.4643C5.07584 9.29699 2.97092 9.01205 1.42671 10.3357C0.369662 11.2364 0.0111834 12.891 0.57188 14.1502C1.27964 15.7496 2.92497 16.5217 4.32211 17.4317V19.7296C3.23749 19.8307 2.18963 20.3914 1.40833 21.1451C-0.981521 23.4707 -0.209416 27.5242 2.81467 28.8938C3.55001 29.2247 4.32211 29.3718 5.07583 29.3534C5.1126 29.3534 5.14937 29.3534 5.18614 29.3534C5.2321 29.3534 5.28724 29.3534 5.32401 29.3442C6.26157 34.8592 6.96934 40.4019 7.44731 45.972C7.39216 46.1926 7.4473 46.4316 7.65871 46.643C10.9402 49.8234 15.9589 50.6047 20.0676 48.656C20.279 48.5549 20.3985 48.3987 20.4444 48.2332C22.2001 49.1616 24.1027 49.7682 26.079 49.9521C28.956 50.2186 32.0996 49.373 34.2872 47.4243C36.4105 45.5308 37.8536 42.9939 38.4786 40.2272C39.2048 36.9825 39.0669 33.5908 39.1588 30.2909C40.3721 29.6475 41.3189 28.4618 41.7693 27.0738C42.6057 24.4817 41.3281 21.0257 39.0117 19.5642L38.9934 19.5458ZM35.5648 18.167C35.9785 17.4225 36.723 17.0732 37.4583 17.0916V18.9299C36.7506 18.7921 35.9877 18.8196 35.1788 19.0862C33.1015 19.7756 32.3018 21.8161 32.3293 23.8383C32.2926 23.9302 32.265 24.0405 32.2742 24.1784V24.2336C31.6308 23.8475 30.9046 23.6453 30.1693 23.6269C30.0682 23.6085 29.9671 23.6085 29.866 23.6269C29.0571 23.6545 28.2482 23.9027 27.5496 24.3439C26.5385 20.9889 22.724 18.5807 19.1944 19.7204C18.0086 20.1065 17.163 20.851 16.6299 21.7886C15.0121 21.4577 13.4036 21.136 11.7858 20.8051V18.213C11.7858 18.1211 11.7674 18.0291 11.749 17.9556C12.0432 15.2257 13.6058 12.9553 16.1335 11.788C18.6612 10.6206 21.6945 10.6849 24.2866 11.5857C25.7848 12.1005 27.1544 12.9461 28.285 14.0491C28.5056 14.7569 29.7465 14.6742 29.7832 13.7826C29.866 11.6593 31.3366 10.1978 33.4875 10.3265C35.3994 10.4368 37.1458 11.8247 37.4492 13.7458V15.5841C36.1899 15.5658 34.9214 16.1448 34.232 17.3949C33.7541 18.2589 35.0777 19.031 35.5557 18.167H35.5648ZM22.1909 30.3185C20.8121 30.4288 19.3874 29.9141 18.5509 28.7927C17.9167 27.9378 17.6318 26.8716 17.5031 25.8146C17.5582 25.7043 17.5766 25.5756 17.5582 25.4193C17.356 23.8659 17.6134 22.2114 19.1116 21.4117C20.3617 20.7407 21.9978 20.9062 23.2479 21.4852C24.8565 22.2298 25.7756 23.5626 26.1893 25.2539C26.226 25.3825 26.2444 25.5204 26.2628 25.6491C26.1801 25.8421 26.2076 26.026 26.2996 26.173C26.2812 28.3147 24.3509 30.1531 22.2 30.3277L22.1909 30.3185ZM2.17124 13.9388C1.64731 13.2035 1.68408 12.0913 2.39185 11.4846C3.60516 10.4368 5.51704 11.1261 6.20642 12.4406C6.22481 12.5049 6.25238 12.5693 6.28914 12.6244C6.30753 12.6612 6.31672 12.6887 6.32591 12.7255C6.65681 13.6447 8.12749 13.2494 7.79659 12.3211C7.76901 12.2475 7.74144 12.1648 7.70467 12.0913C8.14588 9.44406 9.0099 6.57624 10.8758 4.60001C11.7307 3.69003 12.8337 3.01903 14.1021 2.9455C14.8742 2.89954 15.6188 3.03742 16.3449 3.28559C16.7585 3.42347 17.0619 3.59811 17.5031 3.44185C17.9718 3.2764 18.2936 2.89035 18.652 2.56864C19.8929 1.46563 21.8232 1.20826 23.3214 1.93441C24.1303 2.32046 24.691 3.07418 25.5091 3.45105C26.5018 3.91063 27.5037 3.6073 28.4688 3.23044C31.7503 1.91602 36.2175 1.30937 38.5797 4.60001C40.2251 6.88876 40.2618 10.1886 38.6257 12.4498C37.8076 10.3632 35.8222 8.94771 33.4783 8.80983C32.2099 8.7363 30.923 9.10396 29.9487 9.92203C29.2133 10.5287 28.7538 11.3376 28.4964 12.22C23.8913 8.56165 16.0692 8.09287 12.1627 12.9461C10.9218 14.4903 10.3151 16.3562 10.1864 18.3141C10.1772 18.4612 10.2048 18.5898 10.26 18.691V20.5017C8.78011 20.1984 7.30023 19.9043 5.82036 19.6009V17.1927C5.82036 17.1192 5.82036 17.0548 5.79279 16.9905C5.79279 16.7607 5.69168 16.5401 5.4527 16.3746C4.36807 15.6117 2.95254 15.051 2.16205 13.9388H2.17124ZM10.26 23.774L8.008 23.8199L7.98043 22.7905C7.98043 22.6618 7.94366 22.5423 7.8977 22.4504C7.80578 22.1103 7.68629 21.7886 7.52084 21.4944L10.26 22.0459V23.774ZM34.2596 45.2275C33.0187 46.6247 31.4469 47.6082 29.7097 48.1045V46.6063C29.7097 45.6228 28.1839 45.6228 28.1839 46.6063V48.3987C27.8346 48.4354 27.4853 48.4538 27.136 48.4538C24.4888 48.4538 21.9335 47.4703 19.755 46.018C17.2457 44.3359 15.1959 41.9828 13.8999 39.2621C13.4771 38.3705 12.1535 39.1518 12.5763 40.0342C13.9734 42.9663 16.2806 45.5952 19.0657 47.4151C15.7107 48.895 11.6479 48.1964 8.94556 45.7423C8.4584 40.1077 7.74144 34.5007 6.79469 28.9306C7.25428 28.7283 7.68629 28.4618 8.08153 28.1033C8.81687 27.4507 7.73224 26.3661 6.99691 27.0187C4.63463 29.1328 0.654606 26.6234 1.59216 23.5718C1.93226 22.4688 2.92497 21.5772 4.03717 21.2922C5.29644 20.9705 6.13289 21.6967 6.43622 22.8916C6.43622 22.91 6.4454 22.9283 6.4546 22.9467C6.47298 23.4799 6.48217 24.0038 6.50056 24.5369C6.50056 24.6656 6.53732 24.7851 6.58328 24.877C6.6752 25.1344 6.90499 25.3458 7.27266 25.3366L10.931 25.263C11.1332 25.263 11.2986 25.1895 11.4181 25.0792C11.6387 24.9689 11.795 24.7483 11.795 24.4358V22.3309C13.2289 22.625 14.6628 22.91 16.0967 23.2041C16.0048 23.6269 15.9589 24.0773 15.9589 24.5277C15.9037 24.6288 15.8761 24.7575 15.8853 24.9138C16.06 28.039 17.3928 31.2009 20.8213 31.7432C23.8454 32.2304 27.1084 30.245 27.7059 27.1565C27.7794 26.7797 27.8162 26.4028 27.8162 26.026C28.2114 25.5848 28.717 25.2998 29.2777 25.1711L29.3328 30.5943C29.3328 30.8424 29.434 31.0263 29.581 31.1458C29.7924 31.3847 30.1417 31.5134 30.5094 31.3112C30.9046 31.0906 31.4653 30.87 31.7962 30.8516C31.8973 30.8516 31.9984 30.8516 32.0996 30.8516H32.1087C32.1087 30.8516 32.2007 30.87 32.2374 30.8792C32.458 30.9344 32.3385 30.8792 32.5316 31.0079C32.5683 31.0355 32.5867 31.0447 32.6051 31.0538L32.6235 31.0722C32.6694 31.1182 32.7154 31.1641 32.7522 31.2101C32.7706 31.2377 32.8349 31.3204 32.8441 31.348C32.8809 31.4123 32.9176 31.4767 32.9452 31.541C32.9176 31.5042 33.0187 31.78 33.0371 31.8535C33.0371 31.8903 33.0555 31.9087 33.0555 31.9271C33.0555 31.9271 33.0555 31.9454 33.0555 31.9638C33.0555 32.0466 33.0647 32.1293 33.0647 32.212C33.0647 32.2763 33.0647 32.3407 33.0555 32.3958C33.0555 32.4326 33.0371 32.5337 33.0279 32.5613C33.0095 32.6256 32.9912 32.6992 32.9728 32.7635V32.8095L32.9452 32.837C32.9084 32.9106 32.8717 32.9749 32.8257 33.0393V33.0576C32.8257 33.0576 32.7889 33.0852 32.7614 33.1128C32.743 33.1312 32.6511 33.2139 32.6419 33.2231C32.5959 33.2507 32.55 33.2782 32.4948 33.3058L32.4672 33.3242C32.4672 33.3242 32.4305 33.3242 32.3845 33.3426C32.3385 33.3518 32.2926 33.361 32.2466 33.3702C32.2282 33.3702 32.072 33.3794 32.0444 33.3702C31.8698 33.361 31.9709 33.3702 31.8606 33.361C31.3366 33.2691 30.8771 33.0117 30.4358 32.7267C29.6086 32.1844 28.8457 33.508 29.6637 34.0504C31.1436 35.0155 33.414 35.4383 34.2964 33.4805C34.9306 32.0741 34.4526 30.1622 32.9636 29.5188C32.265 29.2247 31.5205 29.2706 30.8219 29.4912L30.7759 25.1987C31.2447 25.3274 31.6767 25.5756 32.0352 25.9249C32.1731 26.0719 32.3385 26.1363 32.4948 26.1455C32.8992 28.1584 33.846 30.0887 36.006 30.6218C36.5484 30.7505 37.0723 30.7781 37.5686 30.7138C37.4583 35.7324 37.7709 41.1923 34.2412 45.1816L34.2596 45.2275ZM40.4916 25.4561C40.4181 27.2025 39.1588 29.1971 37.2561 29.2706C34.8479 29.3626 34.0942 26.9819 33.8644 24.9597C33.9011 24.8586 33.9195 24.7483 33.9011 24.6104C33.7357 23.2225 33.846 21.4577 35.2339 20.7039C36.291 20.1341 37.5962 20.419 38.5246 21.0992C39.8206 22.0459 40.5376 23.8751 40.4824 25.4469L40.4916 25.4561Z" fill="#6E8752"/>
<path d="M24.0145 23.59C23.9502 23.3786 23.7939 23.1948 23.5365 23.0936C22.4427 22.68 21.7533 23.7003 21.6063 24.647C21.4776 25.5019 21.5327 26.9726 22.5163 27.331C24.5201 28.0664 25.2462 24.7665 24.0145 23.59ZM22.9391 25.9063C22.9391 25.9063 22.9391 25.9247 22.9391 25.9339C22.9391 25.9431 22.9115 25.9247 22.9391 25.9063Z" fill="#6E8752"/>
<path d="M37.1561 23.59C37.0918 23.3786 36.9355 23.1948 36.6781 23.0936C35.5843 22.68 34.8949 23.7003 34.7479 24.647C34.6192 25.5019 34.6743 26.9726 35.6579 27.331C37.6617 28.0664 38.3878 24.7665 37.1561 23.59ZM36.0807 25.9063C36.0807 25.9063 36.0807 25.9247 36.0807 25.9339C36.0807 25.9431 36.0531 25.9247 36.0807 25.9063Z" fill="#6E8752"/>
<path d="M17.3749 18.2035C17.0992 19.1502 18.579 19.5547 18.8456 18.6079C19.3787 16.742 21.9984 16.6041 22.844 18.2954C23.2852 19.1778 24.5996 18.4057 24.1676 17.5233C22.7153 14.6187 18.2573 15.1334 17.3749 18.2035Z" fill="#6E8752"/>
</svg>
