<svg width="300" height="300" viewBox="0 0 300 300" fill="none" xmlns="http://www.w3.org/2000/svg">
<g clip-path="url(#clip0_310_26)">
<path fill-rule="evenodd" clip-rule="evenodd" d="M203.551 90.4116C205.576 91.5356 207.361 93.0478 208.802 94.8618C210.243 96.6757 211.313 98.7558 211.95 100.983C212.587 103.211 212.779 105.542 212.515 107.844C212.251 110.145 211.536 112.372 210.411 114.398L161.416 202.582C160.291 204.606 158.777 206.389 156.963 207.828C155.148 209.268 153.068 210.335 150.841 210.971C146.342 212.254 141.518 211.698 137.43 209.425C135.406 208.299 133.623 206.786 132.184 204.971C130.744 203.157 129.676 201.076 129.041 198.849C127.758 194.351 128.314 189.527 130.587 185.439L179.565 97.2547C180.69 95.2303 182.203 93.4475 184.018 92.0081C185.833 90.5686 187.913 89.5006 190.14 88.8652C192.368 88.2297 194.698 88.0392 196.999 88.3046C199.3 88.5699 201.526 89.2859 203.551 90.4116Z" fill="white"/>
<path fill-rule="evenodd" clip-rule="evenodd" d="M83.2487 143.797C86.171 140.148 90.4225 137.809 95.0691 137.293C99.7156 136.777 104.377 138.127 108.028 141.046L157.023 180.235C158.832 181.683 160.338 183.472 161.456 185.502C162.573 187.531 163.279 189.761 163.535 192.064C163.79 194.366 163.59 196.697 162.945 198.922C162.299 201.147 161.222 203.223 159.775 205.032C158.327 206.841 156.538 208.347 154.508 209.464C152.478 210.582 150.249 211.288 147.946 211.544C145.643 211.799 143.313 211.599 141.088 210.953C138.863 210.308 136.786 209.231 134.977 207.784L85.9824 168.595C84.1729 167.148 82.6664 165.358 81.5488 163.328C80.4312 161.299 79.7244 159.069 79.4689 156.766C79.2134 154.463 79.4141 152.133 80.0597 149.907C80.7052 147.682 81.8005 145.606 83.2487 143.797Z" fill="white"/>
<path fill-rule="evenodd" clip-rule="evenodd" d="M158.206 38.6633C156.025 36.4985 153.077 35.2836 150.004 35.2836C146.932 35.2836 143.984 36.4985 141.803 38.6633C125.807 54.6422 100.198 64.4835 77.6759 63.3548C76.0511 63.2581 74.4243 63.5085 72.9038 64.0893C71.3834 64.6701 70.004 65.5681 68.8575 66.7234C67.7484 67.8237 66.8759 69.1391 66.2936 70.5889C65.7113 72.0386 65.4314 73.592 65.4712 75.1538C65.7181 87.8523 62.5259 100.533 58.3283 110.957C54.1307 121.398 47.6404 132.738 38.6633 141.733C36.4985 143.913 35.2836 146.861 35.2836 149.934C35.2836 153.006 36.4985 155.954 38.6633 158.135C54.4129 173.902 65.0126 198.717 65.4712 221.028C65.5187 224.02 66.7339 226.874 68.8575 228.982C70.8821 231.027 73.6019 232.236 76.4766 232.368C88.9105 232.986 101.274 236.654 111.627 241.24C121.997 245.843 133.003 252.545 141.786 261.346C143.966 263.51 146.914 264.725 149.987 264.725C153.059 264.725 156.007 263.51 158.188 261.346C166.989 252.545 177.994 245.843 188.347 241.24C198.717 236.654 211.098 232.986 223.497 232.368C226.372 232.236 229.091 231.027 231.116 228.982C233.246 226.877 234.468 224.022 234.52 221.028C234.979 198.717 245.578 173.902 261.328 158.135C263.493 155.954 264.708 153.006 264.708 149.934C264.708 146.861 263.493 143.913 261.328 141.733C252.333 132.738 245.86 121.398 241.663 110.957C237.465 100.533 234.255 87.8523 234.52 75.1538C234.557 73.5907 234.275 72.0365 233.689 70.5868C233.104 69.137 232.228 67.8222 231.116 66.7234C229.973 65.5672 228.597 64.6673 227.08 64.0835C225.563 63.4997 223.938 63.2453 222.315 63.3372C199.775 64.4835 174.167 54.6422 158.206 38.6633ZM30.2152 75.8417C30.4798 89.228 23.1958 107.323 13.7248 116.777C4.93652 125.573 0 137.499 0 149.934C0 162.368 4.93652 174.294 13.7248 183.091C23.0723 192.403 29.9507 208.559 30.2152 221.751C30.4622 233.426 35.0301 245.032 43.9367 253.92C52.1539 262.154 63.1465 267.028 74.7658 267.589C88.7165 268.294 106.988 276.407 116.865 286.284C125.661 295.067 137.583 300 150.013 300C162.443 300 174.366 295.067 183.162 286.284C193.038 276.407 211.31 268.294 225.261 267.589C236.88 267.028 247.873 262.154 256.09 253.92C264.648 245.374 269.56 233.843 269.794 221.751C270.076 208.559 276.954 192.403 286.284 183.073C295.067 174.277 300 162.355 300 149.925C300 137.495 295.067 125.573 286.284 116.777C276.831 107.323 269.529 89.228 269.811 75.8593C269.944 69.5473 268.797 63.2739 266.438 57.4176C264.08 51.5613 260.56 46.2434 256.09 41.785C251.457 37.1402 245.899 33.5226 239.776 31.1677C233.653 28.8127 227.103 27.7731 220.552 28.1165C207.959 28.7514 192.068 22.649 183.162 13.7248C174.365 4.93652 162.439 0 150.004 0C137.57 0 125.644 4.93652 116.847 13.7248C107.958 22.6314 92.0499 28.7514 79.4572 28.1165C72.9089 27.7756 66.3623 28.8164 60.2426 31.1713C54.1229 33.5262 48.5673 37.1424 43.9367 41.785C39.4689 46.2414 35.9498 51.5563 33.5916 57.4094C31.2333 63.2626 30.0848 69.5327 30.2152 75.8417Z" fill="white"/>
</g>
<defs>
<clipPath id="clip0_310_26">
<rect width="300" height="300" fill="white"/>
</clipPath>
</defs>
</svg>
