<svg width="301" height="301" viewBox="0 0 301 301" fill="none" xmlns="http://www.w3.org/2000/svg">
<mask id="mask0_313_146" style="mask-type:luminance" maskUnits="userSpaceOnUse" x="0" y="0" width="301" height="301">
<path d="M0.688477 0.0117188H300.688V300.012H0.688477V0.0117188Z" fill="white"/>
</mask>
<g mask="url(#mask0_313_146)">
<path fill-rule="evenodd" clip-rule="evenodd" d="M150.688 0.0117188C67.8135 0.0117188 0.688477 67.1367 0.688477 150.012C0.688477 216.387 43.626 272.449 103.251 292.324C110.751 293.637 113.563 289.137 113.563 285.199C113.563 281.637 113.376 269.824 113.376 257.262C75.6885 264.199 65.9385 248.074 62.9385 239.637C61.251 235.324 53.9385 222.012 47.5635 218.449C42.3135 215.637 34.8135 208.699 47.376 208.512C59.1885 208.324 67.626 219.387 70.4385 223.887C83.9385 246.574 105.501 240.199 114.126 236.262C115.438 226.512 119.376 219.949 123.688 216.199C90.3135 212.449 55.4385 199.512 55.4385 142.137C55.4385 125.824 61.251 112.324 70.8135 101.824C69.3135 98.0742 64.0635 82.6992 72.3135 62.0742C72.3135 62.0742 84.876 58.1367 113.563 77.4492C125.563 74.0742 138.313 72.3867 151.063 72.3867C163.813 72.3867 176.563 74.0742 188.563 77.4492C217.251 57.9492 229.813 62.0742 229.813 62.0742C238.063 82.6992 232.813 98.0742 231.313 101.824C240.876 112.324 246.688 125.637 246.688 142.137C246.688 199.699 211.626 212.449 178.251 216.199C183.688 220.887 188.376 229.887 188.376 243.949C188.376 264.012 188.188 280.137 188.188 285.199C188.188 289.137 191.001 293.824 198.501 292.324C228.278 282.271 254.153 263.133 272.484 237.604C290.815 212.075 300.68 181.44 300.688 150.012C300.688 67.1367 233.563 0.0117188 150.688 0.0117188Z" fill="#75984F"/>
</g>
</svg>
