<svg width="301" height="301" viewBox="0 0 301 301" fill="none" xmlns="http://www.w3.org/2000/svg">
<mask id="mask0_313_110" style="mask-type:luminance" maskUnits="userSpaceOnUse" x="0" y="0" width="301" height="301">
<path d="M0.37207 0.364502H300.372V300.365H0.37207V0.364502Z" fill="white"/>
</mask>
<g mask="url(#mask0_313_110)">
<path fill-rule="evenodd" clip-rule="evenodd" d="M150.372 0.364502C67.4971 0.364502 0.37207 67.4895 0.37207 150.365C0.37207 216.74 43.3096 272.802 102.935 292.677C110.435 293.99 113.247 289.49 113.247 285.552C113.247 281.99 113.06 270.177 113.06 257.615C75.3721 264.552 65.6221 248.427 62.6221 239.99C60.9346 235.677 53.6221 222.365 47.2471 218.802C41.9971 215.99 34.4971 209.052 47.0596 208.865C58.8721 208.677 67.3096 219.739 70.1221 224.24C83.6221 246.927 105.185 240.552 113.81 236.614C115.122 226.864 119.06 220.302 123.372 216.552C89.9971 212.802 55.1221 199.865 55.1221 142.49C55.1221 126.177 60.9346 112.677 70.4971 102.177C68.9971 98.427 63.7471 83.052 71.9971 62.427C71.9971 62.427 84.5596 58.4895 113.247 77.802C125.247 74.427 137.997 72.7395 150.747 72.7395C163.497 72.7395 176.247 74.427 188.247 77.802C216.935 58.302 229.497 62.427 229.497 62.427C237.747 83.052 232.497 98.427 230.997 102.177C240.56 112.677 246.372 125.989 246.372 142.49C246.372 200.052 211.31 212.802 177.935 216.552C183.372 221.24 188.06 230.239 188.06 244.302C188.06 264.364 187.872 280.49 187.872 285.552C187.872 289.49 190.685 294.177 198.185 292.677C227.962 282.624 253.837 263.486 272.168 237.957C290.499 212.428 300.363 181.793 300.372 150.365C300.372 67.4895 233.247 0.364502 150.372 0.364502Z" fill="#0A0F08"/>
</g>
</svg>
