<svg width="301" height="301" viewBox="0 0 301 301" fill="none" xmlns="http://www.w3.org/2000/svg">
<mask id="mask0_313_134" style="mask-type:luminance" maskUnits="userSpaceOnUse" x="0" y="0" width="301" height="301">
<path d="M0.688477 0.364502H300.688V300.365H0.688477V0.364502Z" fill="white"/>
</mask>
<g mask="url(#mask0_313_134)">
<path fill-rule="evenodd" clip-rule="evenodd" d="M150.688 0.364502C67.8135 0.364502 0.688477 67.4895 0.688477 150.365C0.688477 216.74 43.626 272.802 103.251 292.677C110.751 293.99 113.563 289.49 113.563 285.552C113.563 281.99 113.376 270.177 113.376 257.615C75.6885 264.552 65.9385 248.427 62.9385 239.99C61.251 235.677 53.9385 222.365 47.5635 218.802C42.3135 215.99 34.8135 209.052 47.376 208.865C59.1885 208.677 67.626 219.739 70.4385 224.24C83.9385 246.927 105.501 240.552 114.126 236.614C115.438 226.864 119.376 220.302 123.688 216.552C90.3135 212.802 55.4385 199.865 55.4385 142.49C55.4385 126.177 61.251 112.677 70.8135 102.177C69.3135 98.427 64.0635 83.052 72.3135 62.427C72.3135 62.427 84.876 58.4895 113.563 77.802C125.563 74.427 138.313 72.7395 151.063 72.7395C163.813 72.7395 176.563 74.427 188.563 77.802C217.251 58.302 229.813 62.427 229.813 62.427C238.063 83.052 232.813 98.427 231.313 102.177C240.876 112.677 246.688 125.989 246.688 142.49C246.688 200.052 211.626 212.802 178.251 216.552C183.688 221.24 188.376 230.239 188.376 244.302C188.376 264.364 188.188 280.49 188.188 285.552C188.188 289.49 191.001 294.177 198.501 292.677C228.278 282.624 254.153 263.486 272.484 237.957C290.815 212.428 300.68 181.793 300.688 150.365C300.688 67.4895 233.563 0.364502 150.688 0.364502Z" fill="#F5F5F5"/>
</g>
</svg>
