<svg width="301" height="301" viewBox="0 0 301 301" fill="none" xmlns="http://www.w3.org/2000/svg">
<mask id="mask0_313_140" style="mask-type:luminance" maskUnits="userSpaceOnUse" x="0" y="0" width="301" height="301">
<path d="M0.37207 0.0117188H300.372V300.012H0.37207V0.0117188Z" fill="white"/>
</mask>
<g mask="url(#mask0_313_140)">
<path fill-rule="evenodd" clip-rule="evenodd" d="M150.372 0.0117188C67.4971 0.0117188 0.37207 67.1367 0.37207 150.012C0.37207 216.387 43.3096 272.449 102.935 292.324C110.435 293.637 113.247 289.137 113.247 285.199C113.247 281.637 113.06 269.824 113.06 257.262C75.3721 264.199 65.6221 248.074 62.6221 239.637C60.9346 235.324 53.6221 222.012 47.2471 218.449C41.9971 215.637 34.4971 208.699 47.0596 208.512C58.8721 208.324 67.3096 219.387 70.1221 223.887C83.6221 246.574 105.185 240.199 113.81 236.262C115.122 226.512 119.06 219.949 123.372 216.199C89.9971 212.449 55.1221 199.512 55.1221 142.137C55.1221 125.824 60.9346 112.324 70.4971 101.824C68.9971 98.0742 63.7471 82.6992 71.9971 62.0742C71.9971 62.0742 84.5596 58.1367 113.247 77.4492C125.247 74.0742 137.997 72.3867 150.747 72.3867C163.497 72.3867 176.247 74.0742 188.247 77.4492C216.935 57.9492 229.497 62.0742 229.497 62.0742C237.747 82.6992 232.497 98.0742 230.997 101.824C240.56 112.324 246.372 125.637 246.372 142.137C246.372 199.699 211.31 212.449 177.935 216.199C183.372 220.887 188.06 229.887 188.06 243.949C188.06 264.012 187.872 280.137 187.872 285.199C187.872 289.137 190.685 293.824 198.185 292.324C227.962 282.271 253.837 263.133 272.168 237.604C290.499 212.075 300.363 181.44 300.372 150.012C300.372 67.1367 233.247 0.0117188 150.372 0.0117188Z" fill="#7F8EF8"/>
</g>
</svg>
