<svg width="301" height="301" viewBox="0 0 301 301" fill="none" xmlns="http://www.w3.org/2000/svg">
<path d="M150.447 0.676025C67.6035 0.676025 0.447266 67.8323 0.447266 150.676C0.447266 233.52 67.6035 300.676 150.447 300.676C233.291 300.676 300.447 233.52 300.447 150.676C300.447 67.8323 233.291 0.676025 150.447 0.676025ZM113.729 212.848H83.3535V115.098H113.729V212.848ZM98.3535 103.098C88.7598 103.098 82.5566 96.301 82.5566 87.8948C82.5566 79.3166 88.9473 72.7229 98.7441 72.7229C108.541 72.7229 114.541 79.3166 114.729 87.8948C114.729 96.301 108.541 103.098 98.3535 103.098ZM224.666 212.848H194.291V158.676C194.291 146.067 189.885 137.504 178.9 137.504C170.51 137.504 165.525 143.301 163.322 148.879C162.51 150.864 162.307 153.676 162.307 156.473V212.832H131.916V146.27C131.916 134.067 131.525 123.864 131.119 115.082H157.51L158.9 128.66H159.51C163.51 122.285 173.307 112.879 189.697 112.879C209.682 112.879 224.666 126.27 224.666 155.051V212.848Z" fill="#0A0F08"/>
</svg>
