<svg width="301" height="301" viewBox="0 0 301 301" fill="none" xmlns="http://www.w3.org/2000/svg">
<path d="M150.344 0.676025C67.5 0.676025 0.34375 67.8323 0.34375 150.676C0.34375 233.52 67.5 300.676 150.344 300.676C233.187 300.676 300.344 233.52 300.344 150.676C300.344 67.8323 233.187 0.676025 150.344 0.676025ZM113.625 212.848H83.25V115.098H113.625V212.848ZM98.25 103.098C88.6562 103.098 82.4531 96.301 82.4531 87.8948C82.4531 79.3166 88.8437 72.7229 98.6406 72.7229C108.437 72.7229 114.437 79.3166 114.625 87.8948C114.625 96.301 108.437 103.098 98.25 103.098ZM224.562 212.848H194.187V158.676C194.187 146.067 189.781 137.504 178.797 137.504C170.406 137.504 165.422 143.301 163.219 148.879C162.406 150.864 162.203 153.676 162.203 156.473V212.832H131.812V146.27C131.812 134.067 131.422 123.864 131.016 115.082H157.406L158.797 128.66H159.406C163.406 122.285 173.203 112.879 189.594 112.879C209.578 112.879 224.562 126.27 224.562 155.051V212.848Z" fill="#F5F5F5"/>
</svg>
