<svg width="301" height="301" viewBox="0 0 301 301" fill="none" xmlns="http://www.w3.org/2000/svg">
<path d="M150.447 0.173828C67.6035 0.173828 0.447266 67.3301 0.447266 150.174C0.447266 233.018 67.6035 300.174 150.447 300.174C233.291 300.174 300.447 233.018 300.447 150.174C300.447 67.3301 233.291 0.173828 150.447 0.173828ZM113.729 212.346H83.3535V114.596H113.729V212.346ZM98.3535 102.596C88.7598 102.596 82.5566 95.7988 82.5566 87.3926C82.5566 78.8144 88.9473 72.2207 98.7441 72.2207C108.541 72.2207 114.541 78.8144 114.729 87.3926C114.729 95.7988 108.541 102.596 98.3535 102.596ZM224.666 212.346H194.291V158.174C194.291 145.564 189.885 137.002 178.9 137.002C170.51 137.002 165.525 142.799 163.322 148.377C162.51 150.361 162.307 153.174 162.307 155.971V212.33H131.916V145.768C131.916 133.564 131.525 123.361 131.119 114.58H157.51L158.9 128.158H159.51C163.51 121.783 173.307 112.377 189.697 112.377C209.682 112.377 224.666 125.768 224.666 154.549V212.346Z" fill="#7F8EF8"/>
</svg>
