<svg width="301" height="301" viewBox="0 0 301 301" fill="none" xmlns="http://www.w3.org/2000/svg">
<path d="M150.307 0.173828C67.4629 0.173828 0.306641 67.3301 0.306641 150.174C0.306641 233.018 67.4629 300.174 150.307 300.174C233.15 300.174 300.307 233.018 300.307 150.174C300.307 67.3301 233.15 0.173828 150.307 0.173828ZM113.588 212.346H83.2129V114.596H113.588V212.346ZM98.2129 102.596C88.6191 102.596 82.416 95.7988 82.416 87.3926C82.416 78.8144 88.8066 72.2207 98.6035 72.2207C108.4 72.2207 114.4 78.8144 114.588 87.3926C114.588 95.7988 108.4 102.596 98.2129 102.596ZM224.525 212.346H194.15V158.174C194.15 145.564 189.744 137.002 178.76 137.002C170.369 137.002 165.385 142.799 163.182 148.377C162.369 150.361 162.166 153.174 162.166 155.971V212.33H131.775V145.768C131.775 133.564 131.385 123.361 130.979 114.58H157.369L158.76 128.158H159.369C163.369 121.783 173.166 112.377 189.557 112.377C209.541 112.377 224.525 125.768 224.525 154.549V212.346Z" fill="#75984F"/>
</svg>
