<svg width="290" height="51" viewBox="0 0 290 51" fill="none" xmlns="http://www.w3.org/2000/svg">
<path d="M79.9745 48.2423C78.6355 48.2423 77.4944 47.8924 76.5359 47.1925C75.5773 46.4926 74.847 45.6101 74.3297 44.5299C73.8124 43.4496 73.5537 42.3389 73.5537 41.1673C73.5537 39.3263 73.8885 37.7592 74.5731 36.4963C75.2578 35.2335 76.1555 34.1684 77.2966 33.3164C78.4225 32.4643 79.7006 31.7188 81.146 31.0798C82.5762 30.4407 84.0369 29.8778 85.4975 29.3605V26.7891C85.4975 25.9371 85.4367 25.222 85.3149 24.6286C85.1932 24.0504 84.9802 23.6092 84.6455 23.2896C84.326 22.9853 83.8239 22.8332 83.1392 22.8332C82.561 22.8332 82.0894 22.9701 81.7242 23.244C81.359 23.5179 81.1156 23.8983 80.9482 24.4003C80.7961 24.9024 80.7048 25.4654 80.6591 26.1196C80.6591 26.1196 80.6896 27.0934 80.1723 27.5346C79.5332 28.0672 77.2662 27.7933 77.2662 27.7933C75.2882 27.7172 73.9493 25.8153 74.4514 23.9135C74.8774 22.3311 75.5469 21.0683 76.4902 20.1097C78.0726 18.4817 80.4918 17.6753 83.7478 17.6753C86.7147 17.6753 88.8905 18.4969 90.2294 20.1401C91.5835 21.7834 92.253 24.0048 92.253 26.8043V40.4979C92.253 41.5934 92.2834 42.5823 92.3291 43.4648C92.3747 44.3473 92.4508 45.1537 92.5269 45.8688C92.6182 46.5839 92.6638 46.9034 92.2987 47.3142C91.6596 48.0445 88.8601 47.7707 88.8601 47.7707C87.5059 47.7707 86.3496 46.7969 86.1213 45.458V45.4275C85.9692 44.5603 85.8475 43.9213 85.7866 43.5104C85.4367 44.7124 84.7976 45.7927 83.8391 46.7665C82.8805 47.7402 81.5873 48.2271 79.944 48.2271L79.9745 48.2423ZM82.6371 43.054C83.0479 43.0388 83.4283 42.9323 83.7934 42.7193C84.189 42.491 84.539 42.2324 84.8433 41.9281C85.1476 41.6238 85.3758 41.3499 85.5127 41.1065V32.8447C84.7672 33.2859 84.0521 33.7272 83.3826 34.1836C82.7132 34.6249 82.135 35.1117 81.6329 35.6443C81.1308 36.1768 80.7656 36.7398 80.507 37.3636C80.2483 37.9722 80.1266 38.7025 80.1266 39.5241C80.1266 40.7109 80.3853 41.6238 80.8874 42.278C81.2982 42.7953 81.9828 43.0844 82.6371 43.0692V43.054Z" fill="#0A0F08"/>
<path d="M95.358 44.7285V21.1756C95.358 19.502 96.7273 18.1326 98.401 18.1326H99.5117C100.927 18.1326 102.083 19.2737 102.083 20.704C103.102 19.6085 104.213 18.8173 105.415 18.3152C106.617 17.8131 107.819 17.5697 109.052 17.5697C110.208 17.5697 111.227 17.8587 112.095 18.4369C112.962 19.0151 113.601 19.9432 114.012 21.2061C115.138 19.9128 116.34 18.9694 117.602 18.4065C118.865 17.8435 120.159 17.5544 121.497 17.5544C122.563 17.5544 123.491 17.8131 124.312 18.3456C125.134 18.8782 125.788 19.6693 126.26 20.704C126.731 21.7538 126.975 23.0471 126.975 24.6294V44.7133C126.975 46.387 125.606 47.7563 123.932 47.7563H123.354C121.68 47.7563 120.311 46.387 120.311 44.7133V25.2533C120.311 24.1273 120.128 23.3514 119.748 22.9254C119.367 22.4993 118.835 22.2863 118.165 22.2863C117.618 22.2863 117.009 22.4385 116.34 22.7428C115.67 23.0471 115.061 23.4731 114.514 24.0208V44.7133C114.514 46.387 113.144 47.7563 111.471 47.7563H110.938C109.265 47.7563 107.895 46.387 107.895 44.7133V25.2533C107.895 24.1273 107.697 23.3514 107.302 22.9254C106.906 22.4993 106.374 22.2863 105.689 22.2863C105.141 22.2863 104.548 22.4385 103.894 22.7428C103.239 23.0471 102.631 23.4731 102.053 24.0208V44.7133C102.053 46.387 100.683 47.7563 99.0096 47.7563H98.3858C96.7121 47.7563 95.3428 46.387 95.3428 44.7133L95.358 44.7285Z" fill="#0A0F08"/>
<path d="M184.67 48.2435C182.51 48.2435 180.745 47.8479 179.345 47.0415C177.945 46.2351 176.895 45.0635 176.195 43.5268C175.495 41.9901 175.146 40.1186 175.146 37.9429V27.9922C175.146 25.8013 175.495 23.945 176.195 22.4083C176.895 20.8716 177.945 19.7 179.345 18.8936C180.745 18.0872 182.525 17.6917 184.67 17.6917C186.815 17.6917 188.611 18.0872 190.026 18.8936C191.441 19.7 192.506 20.8716 193.206 22.4083C193.906 23.945 194.256 25.8165 194.256 27.9922V37.9429C194.256 40.1339 193.906 41.9901 193.206 43.5268C192.506 45.0635 191.441 46.2351 190.026 47.0415C188.611 47.8479 186.815 48.2435 184.67 48.2435ZM184.716 43.4203C185.507 43.4203 186.085 43.1921 186.466 42.7508C186.846 42.3096 187.074 41.701 187.181 40.925C187.287 40.1491 187.333 39.3122 187.333 38.3841V27.5206C187.333 26.5925 187.287 25.7556 187.181 25.0101C187.074 24.2646 186.831 23.656 186.466 23.1843C186.085 22.7278 185.507 22.4844 184.716 22.4844C183.925 22.4844 183.346 22.7126 182.966 23.1843C182.586 23.656 182.342 24.2493 182.22 25.0101C182.099 25.7556 182.038 26.5925 182.038 27.5206V38.3841C182.038 39.3122 182.099 40.1491 182.22 40.925C182.342 41.701 182.586 42.2944 182.966 42.7508C183.346 43.1921 183.925 43.4203 184.716 43.4203Z" fill="#0A0F08"/>
<path d="M205.976 48.2435C203.815 48.2435 202.05 47.8479 200.651 47.0415C199.251 46.2351 198.201 45.0635 197.501 43.5268C196.801 41.9901 196.451 40.1186 196.451 37.9429V27.9922C196.451 25.8013 196.801 23.945 197.501 22.4083C198.201 20.8716 199.251 19.7 200.651 18.8936C202.05 18.0872 203.83 17.6917 205.976 17.6917C208.121 17.6917 209.916 18.0872 211.331 18.8936C212.746 19.7 213.812 20.8716 214.511 22.4083C215.211 23.945 215.561 25.8165 215.561 27.9922V37.9429C215.561 40.1339 215.211 41.9901 214.511 43.5268C213.812 45.0635 212.746 46.2351 211.331 47.0415C209.916 47.8479 208.121 48.2435 205.976 48.2435ZM206.021 43.4203C206.813 43.4203 207.391 43.1921 207.771 42.7508C208.152 42.3096 208.38 41.701 208.486 40.925C208.593 40.1491 208.638 39.3122 208.638 38.3841V27.5206C208.638 26.5925 208.593 25.7556 208.486 25.0101C208.38 24.2646 208.152 23.656 207.771 23.1843C207.391 22.7126 206.813 22.4844 206.021 22.4844C205.23 22.4844 204.652 22.7126 204.272 23.1843C203.891 23.6407 203.648 24.2493 203.526 25.0101C203.404 25.7556 203.344 26.5925 203.344 27.5206V38.3841C203.344 39.3122 203.404 40.1491 203.526 40.925C203.648 41.701 203.891 42.2944 204.272 42.7508C204.652 43.1921 205.23 43.4203 206.021 43.4203Z" fill="#0A0F08"/>
<path d="M218.74 44.7284V9.27738C218.74 7.60373 220.11 6.23438 221.783 6.23438H222.62C224.294 6.23438 225.663 7.60373 225.663 9.27738V44.7284C225.663 46.4021 224.294 47.7715 222.62 47.7715H221.783C220.11 47.7715 218.74 46.4021 218.74 44.7284Z" fill="#0A0F08"/>
<path d="M237.211 48.2421C234.716 48.2421 232.662 47.5726 231.064 46.2489C230.03 45.3817 229.178 44.271 228.524 42.9016C227.915 41.6083 228.524 40.0564 229.862 39.5391L230.121 39.4478C231.521 38.9153 233.042 39.5847 233.712 40.9237C233.94 41.3953 234.199 41.7909 234.488 42.1408C235.142 42.932 236.618 43.4798 237.637 43.3581C238.2 43.282 238.657 43.0994 238.976 42.7799C239.387 42.3691 239.585 41.8061 239.585 41.091C239.585 40.2694 239.341 39.5239 238.839 38.8544C238.337 38.1849 237.5 37.3633 236.298 36.3744L232.708 33.3466C231.414 32.2206 230.365 31.0643 229.558 29.8927C228.752 28.7212 228.356 27.2301 228.356 25.4499C228.356 23.8371 228.721 22.4678 229.452 21.3267C230.182 20.1855 231.201 19.2879 232.479 18.664C233.758 18.025 235.188 17.7207 236.755 17.7207C239.144 17.7207 241.076 18.4358 242.521 19.8508C243.373 20.6724 244.043 21.6462 244.53 22.7721C245.138 24.1567 244.484 25.7695 243.1 26.3629C241.898 26.8802 240.559 26.2868 240.011 25.1C239.691 24.3849 239.265 23.8067 238.748 23.3655C238.231 22.9242 237.637 22.696 236.953 22.696C236.238 22.696 235.659 22.9242 235.233 23.3655C234.807 23.8067 234.594 24.3697 234.594 25.0544C234.594 25.6325 234.838 26.2411 235.34 26.8497C235.842 27.4583 236.542 28.1734 237.47 28.9494L241.106 32.2359C241.898 32.9205 242.643 33.6509 243.358 34.442C244.073 35.2332 244.682 36.1157 245.154 37.0895C245.625 38.0632 245.869 39.1891 245.869 40.452C245.869 42.1561 245.488 43.6015 244.712 44.7578C243.936 45.9142 242.902 46.7967 241.578 47.4053C240.254 47.9987 238.794 48.3029 237.196 48.3029L237.211 48.2421Z" fill="#0A0F08"/>
<path d="M257.634 48.2435C255.473 48.2435 253.709 47.8479 252.309 47.0415C250.909 46.2351 249.859 45.0635 249.159 43.5268C248.459 41.9901 248.109 40.1186 248.109 37.9429V27.9922C248.109 25.8013 248.459 23.945 249.159 22.4083C249.859 20.8716 250.909 19.7 252.309 18.8936C253.709 18.0872 255.489 17.6917 257.634 17.6917C259.779 17.6917 261.575 18.0872 262.99 18.8936C264.405 19.7 265.47 20.8716 266.17 22.4083C266.87 23.945 267.219 25.8165 267.219 27.9922V37.9429C267.219 40.1339 266.87 41.9901 266.17 43.5268C265.47 45.0635 264.405 46.2351 262.99 47.0415C261.575 47.8479 259.779 48.2435 257.634 48.2435ZM257.68 43.4203C258.471 43.4203 259.049 43.1921 259.429 42.7508C259.81 42.3096 260.038 41.701 260.144 40.925C260.251 40.1491 260.297 39.3122 260.297 38.3841V27.5206C260.297 26.5925 260.251 25.7556 260.144 25.0101C260.038 24.2646 259.81 23.656 259.429 23.1843C259.049 22.7126 258.471 22.4844 257.68 22.4844C256.888 22.4844 256.31 22.7126 255.93 23.1843C255.55 23.6407 255.306 24.2493 255.184 25.0101C255.063 25.7556 255.002 26.5925 255.002 27.5206V38.3841C255.002 39.3122 255.063 40.1491 255.184 40.925C255.306 41.701 255.55 42.2944 255.93 42.7508C256.31 43.1921 256.888 43.4203 257.68 43.4203Z" fill="#0A0F08"/>
<path d="M269.944 44.7277V21.1748C269.944 19.5011 271.314 18.1317 272.987 18.1317H273.946C275.589 18.1317 276.913 19.4707 276.913 21.0987C277.978 20.0793 279.089 19.2424 280.275 18.6186C281.462 17.9796 282.725 17.6753 284.094 17.6753C285.327 17.6753 286.301 17.9796 287.016 18.573C287.731 19.1664 288.263 19.9728 288.598 20.9617C288.933 21.9507 289.115 23.031 289.115 24.1873V44.7277C289.115 46.4013 287.746 47.7707 286.072 47.7707H285.19C283.516 47.7707 282.147 46.4013 282.147 44.7277V25.5719C282.147 24.6894 282.01 24.0048 281.736 23.5179C281.462 23.0462 280.93 22.8028 280.154 22.8028C279.667 22.8028 279.149 22.9397 278.586 23.2136C278.024 23.4874 277.461 23.8222 276.928 24.233V44.7277C276.928 46.4013 275.559 47.7707 273.885 47.7707H273.003C271.329 47.7707 269.96 46.4013 269.96 44.7277H269.944Z" fill="#0A0F08"/>
<path d="M61.3824 48.5626C58.8567 48.5626 56.7418 48.0758 55.0529 47.0868C53.3488 46.0978 52.0708 44.6524 51.2035 42.7505C50.8231 41.9289 50.534 41.0312 50.2906 40.0574C49.7429 37.7448 51.2339 35.4473 53.5618 34.9908C55.0073 34.7017 56.3614 35.7059 56.6048 37.1514C56.6961 37.7143 56.8026 38.2468 56.9396 38.7489C57.2743 39.9966 57.7764 40.9551 58.4459 41.6246C59.1153 42.2941 60.013 42.644 61.1237 42.644C62.3713 42.644 63.2538 42.2788 63.7711 41.5333C64.2884 40.7878 64.5471 39.8444 64.5471 38.7033C64.5471 36.8623 64.1363 35.356 63.2995 34.1844C62.4626 33.0129 61.3672 31.8261 59.9826 30.6545L54.6878 25.9835C53.1967 24.7055 52.0099 23.2752 51.1274 21.6929C50.245 20.1105 49.8037 18.163 49.8037 15.8503C49.8037 12.5334 50.7775 9.96207 52.7098 8.16669C54.6421 6.37132 57.2895 5.47363 60.652 5.47363C62.63 5.47363 64.2732 5.77793 65.5817 6.38653C66.8902 6.99514 67.94 7.83196 68.716 8.91223C69.492 9.9925 70.0702 11.2097 70.4505 12.5791C70.5723 13.0051 70.6788 13.4463 70.7701 13.8723C71.1048 15.5156 69.9941 17.1131 68.3356 17.4022C66.4033 17.737 64.608 16.4589 64.2124 14.5418V14.5114C63.9841 13.4767 63.5885 12.6551 63.0104 12.077C62.4322 11.4836 61.5954 11.1945 60.4847 11.1945C59.374 11.1945 58.4611 11.5596 57.8677 12.3052C57.2591 13.0507 56.9548 13.9788 56.9548 15.0895C56.9548 16.5045 57.2439 17.6761 57.8373 18.589C58.4307 19.5019 59.2675 20.4452 60.3782 21.419L65.6274 26.0444C67.3619 27.505 68.8377 29.2091 70.0702 31.1566C71.3026 33.1194 71.9112 35.4777 71.9112 38.2468C71.9112 40.2552 71.4699 42.0354 70.5875 43.6026C69.705 45.1545 68.4726 46.3869 66.9054 47.2694C65.3231 48.1518 63.482 48.5931 61.3672 48.5931L61.3824 48.5626Z" fill="#0A0F08"/>
<path d="M145.904 44.8493L140.959 10.0525C140.594 7.45071 142.617 5.1228 145.234 5.1228C146.193 5.1228 146.999 5.83791 147.121 6.78124L150.499 33.2859L154.424 8.86571C154.759 6.76603 156.569 5.22931 158.699 5.22931C159.704 5.22931 160.556 5.95963 160.708 6.9334L165.044 33.2859L168.102 8.91135C168.376 6.75082 170.217 5.1228 172.393 5.1228C173.838 5.1228 174.949 6.40087 174.751 7.83109L169.457 45.8383C169.243 47.4054 167.889 48.577 166.307 48.577C164.192 48.577 162.382 47.0403 162.047 44.9558L157.817 19.4402L153.496 45.7622C153.237 47.375 151.837 48.577 150.194 48.577C148.034 48.577 146.223 46.9946 145.919 44.8645L145.904 44.8493Z" fill="#0A0F08"/>
<path d="M5.20472 23.1414C3.8995 22.9575 2.75053 23.7112 2.70457 25.09C2.65861 26.3493 3.71566 27.3328 4.96574 27.1857C5.37937 27.1398 5.72865 26.864 5.72865 26.4228C5.72865 26.0459 5.37937 25.6139 4.96574 25.6599C4.81867 25.6783 4.61645 25.6783 4.55211 25.6599C4.50615 25.6507 4.42343 25.6047 4.37747 25.5588C4.29474 25.4761 4.24878 25.329 4.23959 25.1727C4.23959 25.0348 4.30393 24.8326 4.34989 24.7683C4.46019 24.6396 4.55211 24.5845 4.80029 24.6212C5.21391 24.6764 5.61835 24.5201 5.73785 24.0881C5.83896 23.7296 5.60916 23.2057 5.20472 23.1505V23.1414Z" fill="#6E8752"/>
<path d="M28.9834 39.0987C26.3637 40.5142 22.972 38.4645 22.9536 35.5047C22.9536 34.5212 21.4186 34.5212 21.4278 35.5047C21.4554 39.641 26.1248 42.371 29.7555 40.4131C30.6195 39.9443 29.8474 38.6299 28.9834 39.0895V39.0987Z" fill="#6E8752"/>
<path d="M38.9934 20.0897V18.2606C39.2507 18.5179 39.4438 18.8488 39.5449 19.2441C39.7747 20.2 41.2545 19.7956 41.0155 18.8397C40.7306 17.6815 39.9493 16.8726 38.9934 16.459V14.9056C41.3832 12.672 41.9899 8.96772 40.7858 5.98041C40.1791 4.46377 39.1496 3.15854 37.7433 2.3129C35.859 1.18232 33.6713 0.970907 31.5389 1.30181C30.3899 1.47645 29.2869 1.81655 28.2114 2.24856C27.7151 2.44158 27.136 2.74491 26.5937 2.70815C26.0238 2.66219 25.6102 2.19341 25.1966 1.85331C23.7167 0.649195 21.7313 0.244758 19.8929 0.768687C18.9738 1.02606 18.1649 1.51322 17.4755 2.16583C17.3192 2.3129 17.2365 2.45997 17.0711 2.45997C16.8964 2.45997 16.6023 2.29452 16.4368 2.24856C16.0048 2.11987 15.5636 2.04634 15.1132 1.99119C13.6058 1.82574 12.1075 2.24856 10.885 3.14016C8.43082 4.94174 7.15317 8.03016 6.50056 11.0083C5.07584 9.84094 2.97092 9.55599 1.42671 10.8796C0.369662 11.7804 0.0111834 13.4349 0.57188 14.6942C1.27964 16.2935 2.92497 17.0656 4.32211 17.9756V20.2736C3.23749 20.3747 2.18963 20.9354 1.40833 21.6891C-0.981521 24.0146 -0.209416 28.0682 2.81467 29.4377C3.55001 29.7686 4.32211 29.9157 5.07583 29.8973C5.1126 29.8973 5.14937 29.8973 5.18614 29.8973C5.2321 29.8973 5.28724 29.8973 5.32401 29.8881C6.26157 35.4032 6.96934 40.9458 7.44731 46.516C7.39216 46.7366 7.4473 46.9756 7.65871 47.187C10.9402 50.3673 15.9589 51.1486 20.0676 49.2C20.279 49.0989 20.3985 48.9426 20.4444 48.7772C22.2001 49.7055 24.1027 50.3122 26.079 50.496C28.956 50.7626 32.0996 49.9169 34.2872 47.9683C36.4105 46.0748 37.8536 43.5379 38.4786 40.7712C39.2048 37.5265 39.0669 34.1347 39.1588 30.8349C40.3721 30.1915 41.3189 29.0057 41.7693 27.6178C42.6057 25.0257 41.3281 21.5696 39.0117 20.1081L38.9934 20.0897ZM35.5648 18.711C35.9785 17.9664 36.723 17.6172 37.4583 17.6355V19.4739C36.7506 19.336 35.9877 19.3636 35.1788 19.6301C33.1015 20.3195 32.3018 22.3601 32.3293 24.3823C32.2926 24.4742 32.265 24.5845 32.2742 24.7224V24.7775C31.6308 24.3915 30.9046 24.1892 30.1693 24.1709C30.0682 24.1525 29.9671 24.1525 29.866 24.1709C29.0571 24.1984 28.2482 24.4466 27.5496 24.8878C26.5385 21.5328 22.724 19.1246 19.1944 20.2644C18.0086 20.6504 17.163 21.395 16.6299 22.3325C15.0121 22.0016 13.4036 21.6799 11.7858 21.349V18.7569C11.7858 18.665 11.7674 18.5731 11.749 18.4996C12.0432 15.7696 13.6058 13.4993 16.1335 12.3319C18.6612 11.1645 21.6945 11.2289 24.2866 12.1297C25.7848 12.6444 27.1544 13.4901 28.285 14.5931C28.5056 15.3008 29.7465 15.2181 29.7832 14.3265C29.866 12.2032 31.3366 10.7417 33.4875 10.8704C35.3994 10.9807 37.1458 12.3687 37.4492 14.2897V16.1281C36.1899 16.1097 34.9214 16.6888 34.232 17.9389C33.7541 18.8029 35.0777 19.575 35.5557 18.711H35.5648ZM22.1909 30.8625C20.8121 30.9728 19.3874 30.458 18.5509 29.3366C17.9167 28.4818 17.6318 27.4155 17.5031 26.3585C17.5582 26.2482 17.5766 26.1195 17.5582 25.9633C17.356 24.4098 17.6134 22.7553 19.1116 21.9557C20.3617 21.2847 21.9978 21.4501 23.2479 22.0292C24.8565 22.7737 25.7756 24.1065 26.1893 25.7978C26.226 25.9265 26.2444 26.0644 26.2628 26.193C26.1801 26.3861 26.2076 26.5699 26.2996 26.717C26.2812 28.8587 24.3509 30.697 22.2 30.8716L22.1909 30.8625ZM2.17124 14.4828C1.64731 13.7474 1.68408 12.6352 2.39185 12.0286C3.60516 10.9807 5.51704 11.6701 6.20642 12.9845C6.22481 13.0489 6.25238 13.1132 6.28914 13.1683C6.30753 13.2051 6.31672 13.2327 6.32591 13.2695C6.65681 14.1886 8.12749 13.7934 7.79659 12.865C7.76901 12.7915 7.74144 12.7088 7.70467 12.6352C8.14588 9.988 9.0099 7.12018 10.8758 5.14396C11.7307 4.23398 12.8337 3.56298 14.1021 3.48944C14.8742 3.44349 15.6188 3.58136 16.3449 3.82954C16.7585 3.96742 17.0619 4.14206 17.5031 3.9858C17.9718 3.82035 18.2936 3.43429 18.652 3.11258C19.8929 2.00957 21.8232 1.7522 23.3214 2.47835C24.1303 2.8644 24.691 3.61813 25.5091 3.99499C26.5018 4.45458 27.5037 4.15125 28.4688 3.77439C31.7503 2.45997 36.2175 1.85331 38.5797 5.14396C40.2251 7.4327 40.2618 10.7325 38.6257 12.9937C37.8076 10.9072 35.8222 9.49165 33.4783 9.35378C32.2099 9.28024 30.923 9.64791 29.9487 10.466C29.2133 11.0726 28.7538 11.8815 28.4964 12.7639C23.8913 9.1056 16.0692 8.63682 12.1627 13.4901C10.9218 15.0343 10.3151 16.9002 10.1864 18.858C10.1772 19.0051 10.2048 19.1338 10.26 19.2349V21.0457C8.78011 20.7423 7.30023 20.4482 5.82036 20.1449V17.7366C5.82036 17.6631 5.82036 17.5988 5.79279 17.5344C5.79279 17.3046 5.69168 17.084 5.4527 16.9186C4.36807 16.1557 2.95254 15.595 2.16205 14.4828H2.17124ZM10.26 24.3179L8.008 24.3639L7.98043 23.3344C7.98043 23.2057 7.94366 23.0862 7.8977 22.9943C7.80578 22.6542 7.68629 22.3325 7.52084 22.0384L10.26 22.5899V24.3179ZM34.2596 45.7715C33.0187 47.1686 31.4469 48.1521 29.7097 48.6485V47.1502C29.7097 46.1667 28.1839 46.1667 28.1839 47.1502V48.9426C27.8346 48.9794 27.4853 48.9978 27.136 48.9978C24.4888 48.9978 21.9335 48.0142 19.755 46.5619C17.2457 44.8799 15.1959 42.5268 13.8999 39.806C13.4771 38.9144 12.1535 39.6957 12.5763 40.5781C13.9734 43.5103 16.2806 46.1391 19.0657 47.9591C15.7107 49.439 11.6479 48.7404 8.94556 46.2862C8.4584 40.6517 7.74144 35.0447 6.79469 29.4745C7.25428 29.2723 7.68629 29.0057 8.08153 28.6472C8.81687 27.9946 7.73224 26.91 6.99691 27.5626C4.63463 29.6767 0.654606 27.1674 1.59216 24.1157C1.93226 23.0127 2.92497 22.1211 4.03717 21.8362C5.29644 21.5145 6.13289 22.2406 6.43622 23.4355C6.43622 23.4539 6.4454 23.4723 6.4546 23.4907C6.47298 24.0238 6.48217 24.5477 6.50056 25.0808C6.50056 25.2095 6.53732 25.329 6.58328 25.4209C6.6752 25.6783 6.90499 25.8897 7.27266 25.8805L10.931 25.807C11.1332 25.807 11.2986 25.7335 11.4181 25.6232C11.6387 25.5129 11.795 25.2923 11.795 24.9797V22.8748C13.2289 23.169 14.6628 23.4539 16.0967 23.748C16.0048 24.1709 15.9589 24.6213 15.9589 25.0717C15.9037 25.1728 15.8761 25.3014 15.8853 25.4577C16.06 28.5829 17.3928 31.7449 20.8213 32.2872C23.8454 32.7743 27.1084 30.7889 27.7059 27.7005C27.7794 27.3236 27.8162 26.9468 27.8162 26.5699C28.2114 26.1287 28.717 25.8438 29.2777 25.7151L29.3328 31.1382C29.3328 31.3864 29.434 31.5702 29.581 31.6897C29.7924 31.9287 30.1417 32.0574 30.5094 31.8552C30.9046 31.6346 31.4653 31.414 31.7962 31.3956C31.8973 31.3956 31.9984 31.3956 32.0996 31.3956H32.1087C32.1087 31.3956 32.2007 31.414 32.2374 31.4231C32.458 31.4783 32.3385 31.4231 32.5316 31.5518C32.5683 31.5794 32.5867 31.5886 32.6051 31.5978L32.6235 31.6162C32.6694 31.6621 32.7154 31.7081 32.7522 31.754C32.7706 31.7816 32.8349 31.8644 32.8441 31.8919C32.8809 31.9563 32.9176 32.0206 32.9452 32.085C32.9176 32.0482 33.0187 32.3239 33.0371 32.3975C33.0371 32.4342 33.0555 32.4526 33.0555 32.471C33.0555 32.471 33.0555 32.4894 33.0555 32.5078C33.0555 32.5905 33.0647 32.6732 33.0647 32.756C33.0647 32.8203 33.0647 32.8846 33.0555 32.9398C33.0555 32.9766 33.0371 33.0777 33.0279 33.1052C33.0095 33.1696 32.9912 33.2431 32.9728 33.3075V33.3534L32.9452 33.381C32.9084 33.4545 32.8717 33.5189 32.8257 33.5832V33.6016C32.8257 33.6016 32.7889 33.6292 32.7614 33.6567C32.743 33.6751 32.6511 33.7579 32.6419 33.767C32.5959 33.7946 32.55 33.8222 32.4948 33.8498L32.4672 33.8682C32.4672 33.8682 32.4305 33.8681 32.3845 33.8865C32.3385 33.8957 32.2926 33.9049 32.2466 33.9141C32.2282 33.9141 32.072 33.9233 32.0444 33.9141C31.8698 33.9049 31.9709 33.9141 31.8606 33.9049C31.3366 33.813 30.8771 33.5556 30.4358 33.2707C29.6086 32.7284 28.8457 34.052 29.6637 34.5943C31.1436 35.5594 33.414 35.9823 34.2964 34.0244C34.9306 32.6181 34.4526 30.7062 32.9636 30.0628C32.265 29.7686 31.5205 29.8146 30.8219 30.0352L30.7759 25.7427C31.2447 25.8713 31.6767 26.1195 32.0352 26.4688C32.1731 26.6159 32.3385 26.6802 32.4948 26.6894C32.8992 28.7024 33.846 30.6327 36.006 31.1658C36.5484 31.2945 37.0723 31.322 37.5686 31.2577C37.4583 36.2764 37.7709 41.7363 34.2412 45.7255L34.2596 45.7715ZM40.4916 26C40.4181 27.7465 39.1588 29.7411 37.2561 29.8146C34.8479 29.9065 34.0942 27.5258 33.8644 25.5037C33.9011 25.4026 33.9195 25.2923 33.9011 25.1544C33.7357 23.7664 33.846 22.0016 35.2339 21.2479C36.291 20.678 37.5962 20.9629 38.5246 21.6431C39.8206 22.5899 40.5376 24.419 40.4824 25.9908L40.4916 26Z" fill="#6E8752"/>
<path d="M24.0145 24.1337C23.9502 23.9223 23.7939 23.7385 23.5365 23.6373C22.4427 23.2237 21.7533 24.244 21.6063 25.1907C21.4776 26.0456 21.5327 27.5163 22.5163 27.8747C24.5201 28.6101 25.2462 25.3102 24.0145 24.1337ZM22.9391 26.45C22.9391 26.45 22.9391 26.4684 22.9391 26.4776C22.9391 26.4868 22.9115 26.4684 22.9391 26.45Z" fill="#6E8752"/>
<path d="M37.1561 24.1337C37.0918 23.9223 36.9355 23.7385 36.6781 23.6373C35.5843 23.2237 34.8949 24.244 34.7479 25.1907C34.6192 26.0456 34.6743 27.5163 35.6579 27.8747C37.6617 28.6101 38.3878 25.3102 37.1561 24.1337ZM36.0807 26.45C36.0807 26.45 36.0807 26.4684 36.0807 26.4776C36.0807 26.4868 36.0531 26.4684 36.0807 26.45Z" fill="#6E8752"/>
<path d="M17.3749 18.7477C17.0992 19.6944 18.579 20.0988 18.8456 19.1521C19.3787 17.2862 21.9984 17.1483 22.844 18.8396C23.2852 19.722 24.5996 18.9499 24.1676 18.0675C22.7153 15.1629 18.2573 15.6776 17.3749 18.7477Z" fill="#6E8752"/>
</svg>
