<svg width="300" height="53" viewBox="0 0 300 53" fill="none" xmlns="http://www.w3.org/2000/svg">
<g clip-path="url(#clip0_311_10)">
<path d="M82.732 50.0266C81.3469 50.0266 80.1664 49.6646 79.1749 48.9406C78.1832 48.2165 77.4277 47.3036 76.8926 46.1861C76.3575 45.0686 76.0898 43.9196 76.0898 42.7076C76.0898 40.8031 76.4362 39.182 77.1444 37.8755C77.8527 36.5692 78.7814 35.4673 79.9618 34.586C81.1265 33.7045 82.4487 32.9333 83.9439 32.2722C85.4235 31.6111 86.9345 31.0288 88.4455 30.4937V27.8336C88.4455 26.9522 88.3826 26.2124 88.2566 25.5986C88.1307 25.0004 87.9104 24.544 87.5641 24.2134C87.2336 23.8986 86.7142 23.7413 86.0059 23.7413C85.4077 23.7413 84.9199 23.8829 84.5421 24.1662C84.1643 24.4496 83.9125 24.8431 83.7393 25.3624C83.582 25.8818 83.4875 26.4642 83.4403 27.141C83.4403 27.141 83.4718 28.1484 82.9367 28.6048C82.2755 29.1558 79.9304 28.8724 79.9304 28.8724C77.8841 28.7937 76.4991 26.8262 77.0185 24.8588C77.4592 23.2219 78.1518 21.9155 79.1276 20.9239C80.7646 19.2397 83.2672 18.4055 86.6355 18.4055C89.7047 18.4055 91.9555 19.2554 93.3406 20.9553C94.7414 22.6553 95.4339 24.9533 95.4339 27.8493V42.0151C95.4339 43.1484 95.4654 44.1714 95.5127 45.0843C95.5598 45.9972 95.6386 46.8315 95.7173 47.5712C95.8117 48.311 95.8589 48.6415 95.4812 49.0665C94.8201 49.8219 91.924 49.5387 91.924 49.5387C90.5231 49.5387 89.327 48.5313 89.0908 47.1462V47.1147C88.9335 46.2176 88.8076 45.5566 88.7446 45.1315C88.3826 46.3749 87.7215 47.4925 86.7299 48.4999C85.7383 49.5071 84.4005 50.0108 82.7005 50.0108L82.732 50.0266ZM85.4865 44.6593C85.9114 44.6436 86.3049 44.5334 86.6826 44.3131C87.0919 44.0769 87.4539 43.8094 87.7687 43.4946C88.0835 43.1798 88.3196 42.8965 88.4612 42.6447V34.098C87.69 34.5544 86.9503 35.0109 86.2577 35.4831C85.5652 35.9396 84.967 36.4432 84.4476 36.9941C83.9282 37.545 83.5504 38.1274 83.2829 38.7727C83.0153 39.4023 82.8894 40.1578 82.8894 41.0077C82.8894 42.2355 83.157 43.1798 83.6764 43.8566C84.1014 44.3917 84.8096 44.6908 85.4865 44.6751V44.6593Z" fill="#0A0F08"/>
<path d="M98.6466 46.3917V22.0266C98.6466 20.2953 100.063 18.8787 101.795 18.8787H102.944C104.408 18.8787 105.603 20.0591 105.603 21.5387C106.658 20.4054 107.807 19.587 109.05 19.0676C110.294 18.5481 111.537 18.2963 112.813 18.2963C114.009 18.2963 115.063 18.5953 115.961 19.1934C116.858 19.7916 117.519 20.7517 117.944 22.0581C119.109 20.7202 120.352 19.7443 121.658 19.162C122.964 18.5796 124.303 18.2805 125.687 18.2805C126.79 18.2805 127.75 18.5481 128.599 19.099C129.449 19.65 130.126 20.4683 130.614 21.5387C131.101 22.6247 131.354 23.9626 131.354 25.5995V46.3759C131.354 48.1073 129.938 49.5239 128.206 49.5239H127.608C125.876 49.5239 124.46 48.1073 124.46 46.3759V26.2449C124.46 25.0801 124.271 24.2774 123.878 23.8367C123.483 23.3959 122.933 23.1756 122.24 23.1756C121.674 23.1756 121.044 23.333 120.352 23.6478C119.659 23.9626 119.029 24.4033 118.463 24.9699V46.3759C118.463 48.1073 117.046 49.5239 115.315 49.5239H114.764C113.033 49.5239 111.616 48.1073 111.616 46.3759V26.2449C111.616 25.0801 111.411 24.2774 111.002 23.8367C110.593 23.3959 110.042 23.1756 109.334 23.1756C108.767 23.1756 108.153 23.333 107.477 23.6478C106.799 23.9626 106.17 24.4033 105.572 24.9699V46.3759C105.572 48.1073 104.155 49.5239 102.424 49.5239H101.779C100.047 49.5239 98.6309 48.1073 98.6309 46.3759L98.6466 46.3917Z" fill="#0A0F08"/>
<path d="M191.038 50.0277C188.803 50.0277 186.978 49.6184 185.529 48.7842C184.081 47.95 182.995 46.738 182.271 45.1483C181.547 43.5586 181.186 41.6226 181.186 39.3719V29.0781C181.186 26.8116 181.547 24.8913 182.271 23.3016C182.995 21.7119 184.081 20.4999 185.529 19.6657C186.978 18.8315 188.819 18.4224 191.038 18.4224C193.257 18.4224 195.115 18.8315 196.579 19.6657C198.042 20.4999 199.144 21.7119 199.868 23.3016C200.592 24.8913 200.955 26.8273 200.955 29.0781V39.3719C200.955 41.6384 200.592 43.5586 199.868 45.1483C199.144 46.738 198.042 47.95 196.579 48.7842C195.115 49.6184 193.257 50.0277 191.038 50.0277ZM191.086 45.0382C191.904 45.0382 192.502 44.8021 192.896 44.3456C193.289 43.8892 193.525 43.2596 193.636 42.4568C193.745 41.6542 193.793 40.7884 193.793 39.8283V28.5902C193.793 27.6301 193.745 26.7643 193.636 25.9931C193.525 25.2219 193.273 24.5923 192.896 24.1044C192.502 23.6321 191.904 23.3803 191.086 23.3803C190.267 23.3803 189.668 23.6164 189.275 24.1044C188.882 24.5923 188.63 25.2061 188.503 25.9931C188.378 26.7643 188.315 27.6301 188.315 28.5902V39.8283C188.315 40.7884 188.378 41.6542 188.503 42.4568C188.63 43.2596 188.882 43.8734 189.275 44.3456C189.668 44.8021 190.267 45.0382 191.086 45.0382Z" fill="#0A0F08"/>
<path d="M213.079 50.0277C210.844 50.0277 209.018 49.6184 207.57 48.7842C206.122 47.95 205.036 46.738 204.312 45.1483C203.588 43.5586 203.226 41.6226 203.226 39.3719V29.0781C203.226 26.8116 203.588 24.8913 204.312 23.3016C205.036 21.7119 206.122 20.4999 207.57 19.6657C209.018 18.8315 210.859 18.4224 213.079 18.4224C215.298 18.4224 217.155 18.8315 218.619 19.6657C220.082 20.4999 221.185 21.7119 221.908 23.3016C222.632 24.8913 222.995 26.8273 222.995 29.0781V39.3719C222.995 41.6384 222.632 43.5586 221.908 45.1483C221.185 46.738 220.082 47.95 218.619 48.7842C217.155 49.6184 215.298 50.0277 213.079 50.0277ZM213.126 45.0382C213.945 45.0382 214.543 44.8021 214.936 44.3456C215.33 43.8892 215.566 43.2596 215.676 42.4568C215.786 41.6542 215.833 40.7884 215.833 39.8283V28.5902C215.833 27.6301 215.786 26.7643 215.676 25.9931C215.566 25.2219 215.33 24.5923 214.936 24.1044C214.543 23.6164 213.945 23.3803 213.126 23.3803C212.307 23.3803 211.709 23.6164 211.316 24.1044C210.922 24.5765 210.671 25.2061 210.545 25.9931C210.418 26.7643 210.356 27.6301 210.356 28.5902V39.8283C210.356 40.7884 210.418 41.6542 210.545 42.4568C210.671 43.2596 210.922 43.8734 211.316 44.3456C211.709 44.8021 212.307 45.0382 213.126 45.0382Z" fill="#0A0F08"/>
<path d="M226.283 46.3915V9.718C226.283 7.98664 227.7 6.57007 229.431 6.57007H230.297C232.029 6.57007 233.445 7.98664 233.445 9.718V46.3915C233.445 48.1229 232.029 49.5395 230.297 49.5395H229.431C227.7 49.5395 226.283 48.1229 226.283 46.3915Z" fill="#0A0F08"/>
<path d="M245.391 50.0263C242.81 50.0263 240.685 49.3337 239.032 47.9643C237.962 47.0672 237.081 45.9182 236.404 44.5016C235.774 43.1637 236.404 41.5583 237.788 41.0232L238.056 40.9287C239.504 40.3778 241.078 41.0703 241.771 42.4555C242.007 42.9434 242.275 43.3526 242.574 43.7146C243.25 44.533 244.777 45.0997 245.831 44.9738C246.414 44.8951 246.886 44.7062 247.216 44.3757C247.642 43.9507 247.846 43.3683 247.846 42.6286C247.846 41.7786 247.594 41.0074 247.075 40.3148C246.555 39.6223 245.69 38.7723 244.446 37.7493L240.732 34.6171C239.394 33.4523 238.308 32.2561 237.474 31.0441C236.64 29.8322 236.23 28.2897 236.23 26.4481C236.23 24.7797 236.608 23.3632 237.364 22.1827C238.119 21.0022 239.173 20.0736 240.495 19.4282C241.818 18.7672 243.298 18.4524 244.919 18.4524C247.39 18.4524 249.389 19.1922 250.884 20.6559C251.765 21.5059 252.458 22.5133 252.962 23.678C253.591 25.1103 252.914 26.7787 251.483 27.3926C250.239 27.9277 248.854 27.3139 248.287 26.0862C247.956 25.3464 247.515 24.7483 246.981 24.2918C246.446 23.8353 245.831 23.5993 245.124 23.5993C244.384 23.5993 243.785 23.8353 243.344 24.2918C242.904 24.7483 242.683 25.3307 242.683 26.039C242.683 26.637 242.936 27.2666 243.455 27.8962C243.974 28.5258 244.698 29.2655 245.658 30.0683L249.42 33.4681C250.239 34.1763 251.01 34.9319 251.75 35.7503C252.489 36.5688 253.119 37.4817 253.607 38.4891C254.095 39.4964 254.347 40.6611 254.347 41.9675C254.347 43.7304 253.953 45.2256 253.15 46.4218C252.347 47.6181 251.278 48.531 249.908 49.1606C248.538 49.7745 247.028 50.0891 245.375 50.0891L245.391 50.0263Z" fill="#0A0F08"/>
<path d="M266.518 50.0277C264.283 50.0277 262.458 49.6184 261.01 48.7842C259.562 47.95 258.475 46.738 257.751 45.1483C257.027 43.5586 256.665 41.6226 256.665 39.3719V29.0781C256.665 26.8116 257.027 24.8913 257.751 23.3016C258.475 21.7119 259.562 20.4999 261.01 19.6657C262.458 18.8315 264.3 18.4224 266.518 18.4224C268.737 18.4224 270.595 18.8315 272.059 19.6657C273.523 20.4999 274.625 21.7119 275.349 23.3016C276.073 24.8913 276.434 26.8273 276.434 29.0781V39.3719C276.434 41.6384 276.073 43.5586 275.349 45.1483C274.625 46.738 273.523 47.95 272.059 48.7842C270.595 49.6184 268.737 50.0277 266.518 50.0277ZM266.566 45.0382C267.384 45.0382 267.982 44.8021 268.375 44.3456C268.77 43.8892 269.005 43.2596 269.115 42.4568C269.226 41.6542 269.273 40.7884 269.273 39.8283V28.5902C269.273 27.6301 269.226 26.7643 269.115 25.9931C269.005 25.2219 268.77 24.5923 268.375 24.1044C267.982 23.6164 267.384 23.3803 266.566 23.3803C265.747 23.3803 265.149 23.6164 264.756 24.1044C264.363 24.5765 264.11 25.2061 263.984 25.9931C263.859 26.7643 263.796 27.6301 263.796 28.5902V39.8283C263.796 40.7884 263.859 41.6542 263.984 42.4568C264.11 43.2596 264.363 43.8734 264.756 44.3456C265.149 44.8021 265.747 45.0382 266.566 45.0382Z" fill="#0A0F08"/>
<path d="M279.253 46.3908V22.0257C279.253 20.2943 280.67 18.8777 282.401 18.8777H283.393C285.093 18.8777 286.462 20.2628 286.462 21.947C287.564 20.8924 288.713 20.0267 289.94 19.3813C291.168 18.7203 292.475 18.4055 293.891 18.4055C295.166 18.4055 296.174 18.7203 296.914 19.3342C297.653 19.948 298.204 20.7822 298.55 21.8052C298.897 22.8283 299.085 23.9459 299.085 25.1421V46.3908C299.085 48.1221 297.669 49.5387 295.937 49.5387H295.025C293.293 49.5387 291.877 48.1221 291.877 46.3908V26.5744C291.877 25.6615 291.735 24.9533 291.452 24.4496C291.168 23.9616 290.618 23.7098 289.815 23.7098C289.311 23.7098 288.775 23.8514 288.193 24.1348C287.612 24.418 287.029 24.7644 286.478 25.1893V46.3908C286.478 48.1221 285.062 49.5387 283.33 49.5387H282.417C280.686 49.5387 279.269 48.1221 279.269 46.3908H279.253Z" fill="#0A0F08"/>
<path d="M63.4995 50.3578C60.8867 50.3578 58.6988 49.8542 56.9517 48.8311C55.1888 47.808 53.8668 46.3127 52.9696 44.3452C52.576 43.4953 52.277 42.5667 52.0252 41.5593C51.4586 39.1669 53.001 36.7902 55.4092 36.318C56.9045 36.0189 58.3053 37.0577 58.5571 38.5531C58.6516 39.1354 58.7617 39.6862 58.9035 40.2057C59.2497 41.4964 59.7691 42.4879 60.4617 43.1805C61.1542 43.8731 62.0828 44.2351 63.2318 44.2351C64.5224 44.2351 65.4354 43.8573 65.9705 43.0861C66.5057 42.3149 66.7733 41.3389 66.7733 40.1585C66.7733 38.254 66.3483 36.6958 65.4827 35.4838C64.6169 34.2719 63.4837 33.0441 62.0514 31.8321L56.574 27.0001C55.0315 25.678 53.8038 24.1984 52.8908 22.5615C51.978 20.9245 51.5215 18.9099 51.5215 16.5174C51.5215 13.0862 52.5289 10.4262 54.5278 8.56888C56.5267 6.7116 59.2654 5.78296 62.7439 5.78296C64.7901 5.78296 66.4899 6.09775 67.8436 6.72734C69.1972 7.35693 70.2832 8.22261 71.0859 9.34013C71.8887 10.4577 72.4868 11.7168 72.8802 13.1334C73.0062 13.5741 73.1164 14.0305 73.2109 14.4712C73.5571 16.1712 72.4081 17.8238 70.6924 18.1229C68.6935 18.4692 66.8363 17.147 66.427 15.1638V15.1324C66.1909 14.062 65.7816 13.2121 65.1836 12.614C64.5854 12.0002 63.7198 11.7011 62.5708 11.7011C61.4218 11.7011 60.4774 12.0788 59.8636 12.8501C59.234 13.6213 58.9192 14.5814 58.9192 15.7304C58.9192 17.1942 59.2182 18.4062 59.8321 19.3506C60.446 20.295 61.3116 21.2708 62.4606 22.2782L67.8908 27.0631C69.6851 28.574 71.2118 30.3369 72.4868 32.3515C73.7617 34.382 74.3913 36.8217 74.3913 39.6862C74.3913 41.7639 73.9348 43.6055 73.022 45.2267C72.109 46.8321 70.8341 48.107 69.2129 49.02C67.576 49.9328 65.6714 50.3893 63.4837 50.3893L63.4995 50.3578Z" fill="#0A0F08"/>
<path d="M150.935 46.5165L145.82 10.5199C145.442 7.82835 147.535 5.42017 150.242 5.42017C151.234 5.42017 152.068 6.15994 152.194 7.13579L155.689 34.5544L159.749 9.29214C160.095 7.12006 161.968 5.53035 164.171 5.53035C165.211 5.53035 166.092 6.28585 166.25 7.2932L170.735 34.5544L173.899 9.33936C174.182 7.10432 176.086 5.42017 178.337 5.42017C179.832 5.42017 180.982 6.74231 180.777 8.22185L175.3 47.5396C175.079 49.1608 173.678 50.3728 172.042 50.3728C169.854 50.3728 167.981 48.7831 167.635 46.6267L163.259 20.2313L158.789 47.4609C158.521 49.1293 157.073 50.3728 155.373 50.3728C153.139 50.3728 151.265 48.7358 150.951 46.5323L150.935 46.5165Z" fill="#0A0F08"/>
<path d="M5.38375 24.06C4.03353 23.8698 2.84494 24.6495 2.79739 26.0758C2.74985 27.3786 3.84335 28.396 5.13653 28.2438C5.56443 28.1963 5.92575 27.911 5.92575 27.4546C5.92575 27.0647 5.56443 26.6178 5.13653 26.6654C4.98439 26.6844 4.7752 26.6844 4.70864 26.6654C4.6611 26.6559 4.57552 26.6083 4.52798 26.5608C4.4424 26.4752 4.39485 26.3231 4.38534 26.1614C4.38534 26.0187 4.4519 25.8096 4.49945 25.743C4.61355 25.6099 4.70864 25.5529 4.96538 25.5909C5.39326 25.648 5.81165 25.4863 5.93527 25.0394C6.03987 24.6685 5.80214 24.1266 5.38375 24.0694V24.06Z" fill="#75984F"/>
<path d="M29.9832 40.5677C27.2731 42.032 23.7645 39.9116 23.7454 36.8497C23.7454 35.8323 22.1575 35.8323 22.167 36.8497C22.1956 41.1287 27.026 43.9528 30.7819 41.9274C31.6757 41.4424 30.877 40.0827 29.9832 40.5581V40.5677Z" fill="#75984F"/>
<path d="M40.338 20.9031V19.0109C40.6042 19.2771 40.8039 19.6194 40.9085 20.0283C41.1462 21.0172 42.6771 20.5989 42.4298 19.61C42.1351 18.4119 41.3269 17.5751 40.338 17.1472V15.5402C42.8102 13.2296 43.4378 9.3976 42.1922 6.30728C41.5646 4.73834 40.4996 3.3881 39.0448 2.5133C37.0955 1.34374 34.8324 1.12503 32.6264 1.46735C31.4378 1.64801 30.2968 1.99984 29.1842 2.44674C28.6708 2.64642 28.0717 2.96021 27.5107 2.92218C26.9212 2.87464 26.4933 2.38969 26.0654 2.03786C24.5345 0.792228 22.4807 0.373845 20.5789 0.915841C19.6281 1.18209 18.7913 1.68605 18.0781 2.36116C17.9164 2.5133 17.8309 2.66544 17.6598 2.66544C17.479 2.66544 17.1748 2.49429 17.0036 2.44674C16.5567 2.31362 16.1003 2.23755 15.6343 2.1805C14.075 2.00934 12.525 2.44674 11.2603 3.36909C8.72154 5.23279 7.39983 8.42771 6.72472 11.5085C5.25087 10.3009 3.07337 10.0062 1.47591 11.3754C0.382409 12.3073 0.011569 14.0188 0.5916 15.3215C1.32377 16.976 3.02583 17.7747 4.47115 18.7161V21.0933C3.34913 21.1979 2.26513 21.778 1.45689 22.5576C-1.01537 24.9633 -0.216637 29.1567 2.91173 30.5734C3.67242 30.9158 4.47115 31.0679 5.25086 31.0489C5.2889 31.0489 5.32693 31.0489 5.36497 31.0489C5.41252 31.0489 5.46956 31.0489 5.5076 31.0394C6.47749 36.7446 7.20966 42.4784 7.70411 48.2406C7.64706 48.4689 7.7041 48.7161 7.9228 48.9348C11.3174 52.2247 16.5092 53.033 20.7596 51.0172C20.9783 50.9126 21.1019 50.7509 21.1494 50.5798C22.9656 51.5401 24.9338 52.1677 26.9783 52.3579C29.9545 52.6337 33.2065 51.7588 35.4695 49.743C37.666 47.7842 39.1589 45.1599 39.8054 42.2977C40.5567 38.9412 40.414 35.4324 40.5091 32.0188C41.7642 31.3532 42.7437 30.1265 43.2096 28.6908C44.0749 26.0093 42.7532 22.434 40.3569 20.9221L40.338 20.9031ZM36.7912 19.4769C37.2191 18.7066 37.9893 18.3453 38.75 18.3643V20.2661C38.0179 20.1234 37.2287 20.152 36.3919 20.4276C34.2429 21.1408 33.4157 23.2518 33.4441 25.3437C33.4061 25.4388 33.3776 25.5529 33.3871 25.6955V25.7525C32.7215 25.3532 31.9703 25.144 31.2096 25.125C31.105 25.106 31.0004 25.106 30.8959 25.125C30.0591 25.1535 29.2223 25.4102 28.4996 25.8666C27.4536 22.396 23.5076 19.9047 19.8563 21.0838C18.6296 21.4831 17.7548 22.2534 17.2033 23.2232C15.5298 22.8809 13.8658 22.5481 12.1922 22.2058V19.5243C12.1922 19.4293 12.1732 19.3342 12.1541 19.2582C12.4585 16.434 14.075 14.0854 16.6898 12.8778C19.3047 11.6701 22.4426 11.7368 25.1241 12.6686C26.6739 13.2011 28.0908 14.0759 29.2603 15.217C29.4886 15.9491 30.7722 15.8635 30.8102 14.9412C30.8959 12.7446 32.4172 11.2328 34.6422 11.3659C36.6201 11.48 38.4267 12.9159 38.7405 14.9031V16.8049C37.4378 16.7859 36.1256 17.3849 35.4124 18.6781C34.918 19.5719 36.2873 20.3706 36.7818 19.4769H36.7912ZM22.9561 32.0474C21.5298 32.1615 20.0559 31.6289 19.1906 30.4689C18.5345 29.5846 18.2398 28.4815 18.1067 27.3881C18.1637 27.274 18.1827 27.1408 18.1637 26.9792C17.9545 25.3722 18.2208 23.6606 19.7706 22.8334C21.0638 22.1393 22.7563 22.3104 24.0496 22.9095C25.7136 23.6796 26.6644 25.0584 27.0924 26.808C27.1303 26.9412 27.1494 27.0838 27.1684 27.2169C27.0829 27.4166 27.1113 27.6067 27.2065 27.7589C27.1874 29.9745 25.1906 31.8762 22.9655 32.0568L22.9561 32.0474ZM2.24611 15.1029C1.70411 14.3421 1.74215 13.1915 2.47433 12.564C3.72948 11.48 5.70728 12.1932 6.42043 13.5529C6.43946 13.6195 6.46798 13.686 6.50601 13.743C6.52503 13.7811 6.53454 13.8096 6.54404 13.8477C6.88636 14.7985 8.40775 14.3897 8.06544 13.4293C8.03691 13.3532 8.00839 13.2677 7.97035 13.1915C8.42677 10.4531 9.32059 7.48635 11.2508 5.44199C12.1352 4.50063 13.2762 3.80649 14.5884 3.73041C15.3871 3.68288 16.1574 3.8255 16.9085 4.08224C17.3364 4.22488 17.6502 4.40554 18.1067 4.24389C18.5915 4.07273 18.9244 3.67336 19.2952 3.34056C20.5789 2.19951 22.5757 1.93327 24.1256 2.68446C24.9624 3.08382 25.5424 3.86354 26.3887 4.2534C27.4157 4.72883 28.4521 4.41504 29.4505 4.02519C32.8451 2.66544 37.4664 2.03786 39.91 5.44199C41.6122 7.80965 41.6501 11.2232 39.9576 13.5624C39.1113 11.404 37.0574 9.9396 34.6327 9.79697C33.3206 9.7209 31.9893 10.1012 30.9814 10.9475C30.2207 11.5751 29.7453 12.4119 29.479 13.3247C24.7151 9.54023 16.6233 9.05529 12.5821 14.0759C11.2984 15.6734 10.6708 17.6036 10.5377 19.6289C10.5281 19.7811 10.5567 19.9142 10.6138 20.0188V21.8921C9.08287 21.5782 7.55196 21.274 6.02106 20.9602V18.4689C6.02106 18.3928 6.02106 18.3263 5.99254 18.2597C5.99254 18.022 5.88794 17.7938 5.64072 17.6226C4.51869 16.8334 3.05435 16.2534 2.2366 15.1029H2.24611ZM10.6138 25.2771L8.28414 25.3247L8.25562 24.2597C8.25562 24.1265 8.21758 24.0029 8.17003 23.9079C8.07494 23.556 7.95133 23.2232 7.78018 22.919L10.6138 23.4895V25.2771ZM35.441 47.4705C34.1573 48.9157 32.5313 49.9332 30.7342 50.4467V48.8967C30.7342 47.8793 29.1558 47.8793 29.1558 48.8967V50.7509C28.7944 50.789 28.4331 50.808 28.0717 50.808C25.3332 50.808 22.6898 49.7905 20.4362 48.2881C17.8404 46.5481 15.7199 44.1139 14.3792 41.2993C13.9418 40.3769 12.5726 41.1852 13.01 42.098C14.4552 45.1313 16.842 47.8507 19.7231 49.7335C16.2524 51.2644 12.0496 50.5418 9.25403 48.0029C8.75007 42.1741 8.00839 36.3738 7.02899 30.6115C7.50443 30.4023 7.95133 30.1265 8.3602 29.7557C9.1209 29.0806 7.99887 27.9586 7.23818 28.6337C4.79444 30.8207 0.677179 28.2249 1.64706 25.0679C1.99889 23.9269 3.02583 23.0045 4.17638 22.7098C5.47908 22.377 6.34437 23.1282 6.65816 24.3643C6.65816 24.3833 6.66765 24.4023 6.67717 24.4214C6.69619 24.9729 6.70569 25.5148 6.72472 26.0663C6.72472 26.1994 6.76274 26.3231 6.81029 26.4181C6.90538 26.6844 7.14309 26.9031 7.52344 26.8936L11.3079 26.8175C11.5171 26.8175 11.6882 26.7415 11.8118 26.6274C12.04 26.5133 12.2017 26.2851 12.2017 25.9617V23.7842C13.6851 24.0886 15.1684 24.3833 16.6518 24.6875C16.5567 25.125 16.5092 25.591 16.5092 26.0569C16.4521 26.1615 16.4236 26.2945 16.4331 26.4562C16.6138 29.6892 17.9926 32.9602 21.5393 33.5212C24.6677 34.0251 28.0432 31.9712 28.6613 28.7763C28.7373 28.3864 28.7754 27.9966 28.7754 27.6068C29.1842 27.1503 29.7072 26.8556 30.2873 26.7225L30.3443 32.3326C30.3443 32.5893 30.449 32.7795 30.601 32.9031C30.8197 33.1503 31.1811 33.2835 31.5614 33.0743C31.9703 32.8461 32.5503 32.6179 32.8926 32.5989C32.9972 32.5989 33.1018 32.5989 33.2065 32.5989H33.2159C33.2159 32.5989 33.3111 32.6179 33.349 32.6273C33.5772 32.6844 33.4536 32.6273 33.6534 32.7604C33.6913 32.789 33.7104 32.7985 33.7294 32.808L33.7484 32.8271C33.7959 32.8745 33.8435 32.9221 33.8816 32.9696C33.9006 32.9982 33.9671 33.0838 33.9767 33.1123C34.0147 33.1789 34.0527 33.2454 34.0812 33.312C34.0527 33.274 34.1573 33.5592 34.1763 33.6353C34.1763 33.6733 34.1953 33.6923 34.1953 33.7113C34.1953 33.7113 34.1953 33.7304 34.1953 33.7494C34.1953 33.835 34.2049 33.9205 34.2049 34.0062C34.2049 34.0727 34.2049 34.1392 34.1953 34.1963C34.1953 34.2344 34.1763 34.339 34.1668 34.3674C34.1478 34.434 34.1288 34.5101 34.1098 34.5767V34.6242L34.0812 34.6527C34.0432 34.7288 34.0052 34.7954 33.9576 34.8619V34.8809C33.9576 34.8809 33.9195 34.9095 33.8911 34.9379C33.8721 34.957 33.777 35.0426 33.7675 35.052C33.7199 35.0806 33.6724 35.1091 33.6153 35.1377L33.5868 35.1567C33.5868 35.1567 33.5488 35.1566 33.5012 35.1756C33.4536 35.1852 33.4061 35.1947 33.3586 35.2042C33.3395 35.2042 33.1779 35.2137 33.1494 35.2042C32.9688 35.1947 33.0733 35.2042 32.9592 35.1947C32.4172 35.0996 31.9418 34.8333 31.4853 34.5386C30.6296 33.9776 29.8404 35.3469 30.6866 35.9079C32.2175 36.9062 34.5662 37.3437 35.479 35.3183C36.1351 33.8635 35.6406 31.8857 34.1003 31.2201C33.3776 30.9157 32.6074 30.9633 31.8847 31.1915L31.8371 26.751C32.3221 26.8841 32.769 27.1408 33.1399 27.5022C33.2825 27.6543 33.4536 27.7209 33.6153 27.7304C34.0337 29.8128 35.0131 31.8096 37.2476 32.3611C37.8087 32.4943 38.3507 32.5227 38.8641 32.4562C38.75 37.648 39.0733 43.2961 35.4219 47.4229L35.441 47.4705ZM41.8879 27.0172C41.8118 28.8239 40.5091 30.8873 38.5408 30.9633C36.0495 31.0584 35.2699 28.5956 35.0321 26.5038C35.0701 26.3992 35.0891 26.2851 35.0701 26.1424C34.899 24.7066 35.0131 22.8809 36.4489 22.1012C37.5424 21.5117 38.8926 21.8064 39.853 22.5101C41.1937 23.4895 41.9354 25.3817 41.8783 27.0077L41.8879 27.0172Z" fill="#75984F"/>
<path d="M24.8424 25.0867C24.7759 24.868 24.6142 24.6779 24.348 24.5732C23.2164 24.1453 22.5033 25.2008 22.3512 26.1802C22.2181 27.0646 22.2751 28.586 23.2926 28.9567C25.3655 29.7175 26.1166 26.3038 24.8424 25.0867ZM23.73 27.4829C23.73 27.4829 23.73 27.5019 23.73 27.5115C23.73 27.521 23.7014 27.5019 23.73 27.4829Z" fill="#75984F"/>
<path d="M38.4372 25.0867C38.3706 24.868 38.209 24.6779 37.9427 24.5732C36.8112 24.1453 36.098 25.2008 35.9459 26.1802C35.8128 27.0646 35.8698 28.586 36.8873 28.9567C38.9602 29.7175 39.7113 26.3038 38.4372 25.0867ZM37.3247 27.4829C37.3247 27.4829 37.3247 27.5019 37.3247 27.5115C37.3247 27.521 37.2961 27.5019 37.3247 27.4829Z" fill="#75984F"/>
<path d="M17.9737 19.5149C17.6885 20.4943 19.2193 20.9126 19.4951 19.9333C20.0466 18.003 22.7567 17.8604 23.6314 19.61C24.0878 20.5228 25.4476 19.7241 25.0007 18.8113C23.4983 15.8065 18.8866 16.339 17.9737 19.5149Z" fill="#75984F"/>
</g>
<defs>
<clipPath id="clip0_311_10">
<rect width="300" height="52.7586" fill="white" transform="translate(0 0.120605)"/>
</clipPath>
</defs>
</svg>
