<svg width="300" height="53" viewBox="0 0 300 53" fill="none" xmlns="http://www.w3.org/2000/svg">
<g clip-path="url(#clip0_311_27)">
<path d="M82.732 49.9059C81.3469 49.9059 80.1664 49.544 79.1749 48.8199C78.1832 48.0959 77.4277 47.183 76.8926 46.0655C76.3575 44.948 76.0898 43.799 76.0898 42.587C76.0898 40.6825 76.4362 39.0614 77.1444 37.7549C77.8527 36.4486 78.7814 35.3467 79.9618 34.4654C81.1265 33.5839 82.4487 32.8127 83.9439 32.1516C85.4235 31.4905 86.9345 30.9082 88.4455 30.3731V27.713C88.4455 26.8316 88.3826 26.0918 88.2566 25.478C88.1307 24.8798 87.9104 24.4234 87.5641 24.0928C87.2336 23.778 86.7142 23.6207 86.0059 23.6207C85.4077 23.6207 84.9199 23.7623 84.5421 24.0456C84.1643 24.329 83.9125 24.7225 83.7393 25.2418C83.582 25.7612 83.4875 26.3436 83.4403 27.0204C83.4403 27.0204 83.4718 28.0278 82.9367 28.4842C82.2755 29.0352 79.9304 28.7518 79.9304 28.7518C77.8841 28.6731 76.4991 26.7056 77.0185 24.7382C77.4592 23.1013 78.1518 21.7949 79.1276 20.8033C80.7646 19.1191 83.2672 18.2849 86.6355 18.2849C89.7047 18.2849 91.9555 19.1348 93.3406 20.8347C94.7414 22.5347 95.4339 24.8327 95.4339 27.7287V41.8945C95.4339 43.0278 95.4654 44.0508 95.5127 44.9637C95.5598 45.8766 95.6386 46.7108 95.7173 47.4506C95.8117 48.1904 95.8589 48.5209 95.4812 48.9458C94.8201 49.7013 91.924 49.4181 91.924 49.4181C90.5231 49.4181 89.327 48.4107 89.0908 47.0256V46.9941C88.9335 46.097 88.8076 45.4359 88.7446 45.0109C88.3826 46.2543 87.7215 47.3719 86.7299 48.3793C85.7383 49.3865 84.4005 49.8902 82.7005 49.8902L82.732 49.9059ZM85.4865 44.5387C85.9114 44.523 86.3049 44.4128 86.6826 44.1925C87.0919 43.9563 87.4539 43.6888 87.7687 43.374C88.0835 43.0592 88.3196 42.7759 88.4612 42.5241V33.9774C87.69 34.4338 86.9503 34.8903 86.2577 35.3625C85.5652 35.819 84.967 36.3226 84.4476 36.8735C83.9282 37.4244 83.5504 38.0068 83.2829 38.6521C83.0153 39.2817 82.8894 40.0372 82.8894 40.8871C82.8894 42.1148 83.157 43.0592 83.6764 43.736C84.1014 44.2711 84.8096 44.5702 85.4865 44.5545V44.5387Z" fill="#F5F5F5"/>
<path d="M98.6466 46.271V21.906C98.6466 20.1747 100.063 18.7581 101.795 18.7581H102.944C104.408 18.7581 105.603 19.9385 105.603 21.4181C106.658 20.2848 107.807 19.4664 109.05 18.9469C110.294 18.4275 111.537 18.1757 112.813 18.1757C114.009 18.1757 115.063 18.4747 115.961 19.0728C116.858 19.671 117.519 20.6311 117.944 21.9375C119.109 20.5996 120.352 19.6237 121.658 19.0414C122.964 18.459 124.303 18.1599 125.687 18.1599C126.79 18.1599 127.75 18.4275 128.599 18.9784C129.449 19.5294 130.126 20.3477 130.614 21.4181C131.101 22.5041 131.354 23.842 131.354 25.4789V46.2553C131.354 47.9867 129.938 49.4033 128.206 49.4033H127.608C125.876 49.4033 124.46 47.9867 124.46 46.2553V26.1243C124.46 24.9595 124.271 24.1568 123.878 23.7161C123.483 23.2753 122.933 23.055 122.24 23.055C121.674 23.055 121.044 23.2124 120.352 23.5272C119.659 23.842 119.029 24.2827 118.463 24.8493V46.2553C118.463 47.9867 117.046 49.4033 115.315 49.4033H114.764C113.033 49.4033 111.616 47.9867 111.616 46.2553V26.1243C111.616 24.9595 111.411 24.1568 111.002 23.7161C110.593 23.2753 110.042 23.055 109.334 23.055C108.767 23.055 108.153 23.2124 107.477 23.5272C106.799 23.842 106.17 24.2827 105.572 24.8493V46.2553C105.572 47.9867 104.155 49.4033 102.424 49.4033H101.779C100.047 49.4033 98.6309 47.9867 98.6309 46.2553L98.6466 46.271Z" fill="#F5F5F5"/>
<path d="M191.038 49.9071C188.803 49.9071 186.978 49.4978 185.529 48.6636C184.081 47.8294 182.995 46.6174 182.271 45.0277C181.547 43.438 181.186 41.502 181.186 39.2513V28.9574C181.186 26.691 181.547 24.7707 182.271 23.181C182.995 21.5913 184.081 20.3793 185.529 19.5451C186.978 18.7109 188.819 18.3018 191.038 18.3018C193.257 18.3018 195.115 18.7109 196.579 19.5451C198.042 20.3793 199.144 21.5913 199.868 23.181C200.592 24.7707 200.955 26.7067 200.955 28.9574V39.2513C200.955 41.5178 200.592 43.438 199.868 45.0277C199.144 46.6174 198.042 47.8294 196.579 48.6636C195.115 49.4978 193.257 49.9071 191.038 49.9071ZM191.086 44.9175C191.904 44.9175 192.502 44.6815 192.896 44.225C193.289 43.7686 193.525 43.139 193.636 42.3362C193.745 41.5335 193.793 40.6678 193.793 39.7077V28.4696C193.793 27.5095 193.745 26.6437 193.636 25.8725C193.525 25.1013 193.273 24.4717 192.896 23.9838C192.502 23.5115 191.904 23.2597 191.086 23.2597C190.267 23.2597 189.668 23.4958 189.275 23.9838C188.882 24.4717 188.63 25.0855 188.503 25.8725C188.378 26.6437 188.315 27.5095 188.315 28.4696V39.7077C188.315 40.6678 188.378 41.5335 188.503 42.3362C188.63 43.139 188.882 43.7528 189.275 44.225C189.668 44.6815 190.267 44.9175 191.086 44.9175Z" fill="#F5F5F5"/>
<path d="M213.079 49.9071C210.844 49.9071 209.018 49.4978 207.57 48.6636C206.122 47.8294 205.036 46.6174 204.312 45.0277C203.588 43.438 203.226 41.502 203.226 39.2513V28.9574C203.226 26.691 203.588 24.7707 204.312 23.181C205.036 21.5913 206.122 20.3793 207.57 19.5451C209.018 18.7109 210.859 18.3018 213.079 18.3018C215.298 18.3018 217.155 18.7109 218.619 19.5451C220.082 20.3793 221.185 21.5913 221.908 23.181C222.632 24.7707 222.995 26.7067 222.995 28.9574V39.2513C222.995 41.5178 222.632 43.438 221.908 45.0277C221.185 46.6174 220.082 47.8294 218.619 48.6636C217.155 49.4978 215.298 49.9071 213.079 49.9071ZM213.126 44.9175C213.945 44.9175 214.543 44.6815 214.936 44.225C215.33 43.7686 215.566 43.139 215.676 42.3362C215.786 41.5335 215.833 40.6678 215.833 39.7077V28.4696C215.833 27.5095 215.786 26.6437 215.676 25.8725C215.566 25.1013 215.33 24.4717 214.936 23.9838C214.543 23.4958 213.945 23.2597 213.126 23.2597C212.307 23.2597 211.709 23.4958 211.316 23.9838C210.922 24.4559 210.671 25.0855 210.545 25.8725C210.418 26.6437 210.356 27.5095 210.356 28.4696V39.7077C210.356 40.6678 210.418 41.5335 210.545 42.3362C210.671 43.139 210.922 43.7528 211.316 44.225C211.709 44.6815 212.307 44.9175 213.126 44.9175Z" fill="#F5F5F5"/>
<path d="M226.283 46.2709V9.59739C226.283 7.86603 227.7 6.44946 229.431 6.44946H230.297C232.029 6.44946 233.445 7.86603 233.445 9.59739V46.2709C233.445 48.0023 232.029 49.4189 230.297 49.4189H229.431C227.7 49.4189 226.283 48.0023 226.283 46.2709Z" fill="#F5F5F5"/>
<path d="M245.391 49.9056C242.81 49.9056 240.685 49.2131 239.032 47.8437C237.962 46.9466 237.081 45.7976 236.404 44.381C235.774 43.0431 236.404 41.4377 237.788 40.9025L238.056 40.8081C239.504 40.2572 241.078 40.9497 241.771 42.3349C242.007 42.8228 242.275 43.232 242.574 43.594C243.25 44.4124 244.777 44.9791 245.831 44.8532C246.414 44.7745 246.886 44.5856 247.216 44.2551C247.642 43.8301 247.846 43.2477 247.846 42.508C247.846 41.658 247.594 40.8868 247.075 40.1942C246.555 39.5016 245.69 38.6517 244.446 37.6287L240.732 34.4965C239.394 33.3317 238.308 32.1355 237.474 30.9235C236.64 29.7116 236.23 28.1691 236.23 26.3275C236.23 24.6591 236.608 23.2426 237.364 22.0621C238.119 20.8816 239.173 19.953 240.495 19.3076C241.818 18.6466 243.298 18.3318 244.919 18.3318C247.39 18.3318 249.389 19.0715 250.884 20.5353C251.765 21.3853 252.458 22.3927 252.962 23.5574C253.591 24.9897 252.914 26.6581 251.483 27.272C250.239 27.8071 248.854 27.1933 248.287 25.9655C247.956 25.2258 247.515 24.6276 246.981 24.1712C246.446 23.7147 245.831 23.4786 245.124 23.4786C244.384 23.4786 243.785 23.7147 243.344 24.1712C242.904 24.6276 242.683 25.2101 242.683 25.9184C242.683 26.5164 242.936 27.146 243.455 27.7756C243.974 28.4052 244.698 29.1449 245.658 29.9477L249.42 33.3475C250.239 34.0557 251.01 34.8113 251.75 35.6297C252.489 36.4482 253.119 37.3611 253.607 38.3685C254.095 39.3758 254.347 40.5405 254.347 41.8469C254.347 43.6098 253.953 45.105 253.15 46.3012C252.347 47.4975 251.278 48.4104 249.908 49.04C248.538 49.6539 247.028 49.9685 245.375 49.9685L245.391 49.9056Z" fill="#F5F5F5"/>
<path d="M266.518 49.9071C264.283 49.9071 262.458 49.4978 261.01 48.6636C259.562 47.8294 258.475 46.6174 257.751 45.0277C257.027 43.438 256.665 41.502 256.665 39.2513V28.9574C256.665 26.691 257.027 24.7707 257.751 23.181C258.475 21.5913 259.562 20.3793 261.01 19.5451C262.458 18.7109 264.3 18.3018 266.518 18.3018C268.737 18.3018 270.595 18.7109 272.059 19.5451C273.523 20.3793 274.625 21.5913 275.349 23.181C276.073 24.7707 276.434 26.7067 276.434 28.9574V39.2513C276.434 41.5178 276.073 43.438 275.349 45.0277C274.625 46.6174 273.523 47.8294 272.059 48.6636C270.595 49.4978 268.737 49.9071 266.518 49.9071ZM266.566 44.9175C267.384 44.9175 267.982 44.6815 268.375 44.225C268.77 43.7686 269.005 43.139 269.115 42.3362C269.226 41.5335 269.273 40.6678 269.273 39.7077V28.4696C269.273 27.5095 269.226 26.6437 269.115 25.8725C269.005 25.1013 268.77 24.4717 268.375 23.9838C267.982 23.4958 267.384 23.2597 266.566 23.2597C265.747 23.2597 265.149 23.4958 264.756 23.9838C264.363 24.4559 264.11 25.0855 263.984 25.8725C263.859 26.6437 263.796 27.5095 263.796 28.4696V39.7077C263.796 40.6678 263.859 41.5335 263.984 42.3362C264.11 43.139 264.363 43.7528 264.756 44.225C265.149 44.6815 265.747 44.9175 266.566 44.9175Z" fill="#F5F5F5"/>
<path d="M279.253 46.2702V21.9051C279.253 20.1737 280.67 18.757 282.401 18.757H283.393C285.093 18.757 286.462 20.1422 286.462 21.8264C287.564 20.7718 288.713 19.9061 289.94 19.2607C291.168 18.5997 292.475 18.2849 293.891 18.2849C295.166 18.2849 296.174 18.5997 296.914 19.2136C297.653 19.8274 298.204 20.6616 298.55 21.6846C298.897 22.7077 299.085 23.8253 299.085 25.0215V46.2702C299.085 48.0015 297.669 49.4181 295.937 49.4181H295.025C293.293 49.4181 291.877 48.0015 291.877 46.2702V26.4538C291.877 25.5409 291.735 24.8327 291.452 24.329C291.168 23.841 290.618 23.5892 289.815 23.5892C289.311 23.5892 288.775 23.7308 288.193 24.0142C287.612 24.2974 287.029 24.6438 286.478 25.0687V46.2702C286.478 48.0015 285.062 49.4181 283.33 49.4181H282.417C280.686 49.4181 279.269 48.0015 279.269 46.2702H279.253Z" fill="#F5F5F5"/>
<path d="M63.4995 50.2371C60.8867 50.2371 58.6988 49.7336 56.9517 48.7105C55.1888 47.6874 53.8668 46.1921 52.9696 44.2246C52.576 43.3747 52.277 42.446 52.0252 41.4387C51.4586 39.0463 53.001 36.6696 55.4092 36.1974C56.9045 35.8983 58.3053 36.9371 58.5571 38.4325C58.6516 39.0148 58.7617 39.5656 58.9035 40.085C59.2497 41.3758 59.7691 42.3673 60.4617 43.0599C61.1542 43.7525 62.0828 44.1145 63.2318 44.1145C64.5224 44.1145 65.4354 43.7367 65.9705 42.9655C66.5057 42.1943 66.7733 41.2183 66.7733 40.0379C66.7733 38.1334 66.3483 36.5751 65.4827 35.3631C64.6169 34.1513 63.4837 32.9235 62.0514 31.7115L56.574 26.8795C55.0315 25.5574 53.8038 24.0778 52.8908 22.4409C51.978 20.8039 51.5215 18.7893 51.5215 16.3968C51.5215 12.9656 52.5289 10.3056 54.5278 8.44828C56.5267 6.591 59.2654 5.66235 62.7439 5.66235C64.7901 5.66235 66.4899 5.97715 67.8436 6.60673C69.1972 7.23633 70.2832 8.102 71.0859 9.21953C71.8887 10.337 72.4868 11.5962 72.8802 13.0128C73.0062 13.4535 73.1164 13.9099 73.2109 14.3506C73.5571 16.0506 72.4081 17.7032 70.6924 18.0023C68.6935 18.3486 66.8363 17.0264 66.427 15.0432V15.0118C66.1909 13.9414 65.7816 13.0915 65.1836 12.4934C64.5854 11.8796 63.7198 11.5805 62.5708 11.5805C61.4218 11.5805 60.4774 11.9582 59.8636 12.7295C59.234 13.5007 58.9192 14.4608 58.9192 15.6098C58.9192 17.0736 59.2182 18.2856 59.8321 19.23C60.446 20.1744 61.3116 21.1502 62.4606 22.1576L67.8908 26.9425C69.6851 28.4534 71.2118 30.2163 72.4868 32.2309C73.7617 34.2614 74.3913 36.701 74.3913 39.5656C74.3913 41.6433 73.9348 43.4849 73.022 45.1061C72.109 46.7115 70.8341 47.9864 69.2129 48.8994C67.576 49.8122 65.6714 50.2687 63.4837 50.2687L63.4995 50.2371Z" fill="#F5F5F5"/>
<path d="M150.935 46.3959L145.82 10.3992C145.442 7.70774 147.535 5.29956 150.242 5.29956C151.234 5.29956 152.068 6.03933 152.194 7.01519L155.689 34.4338L159.749 9.17154C160.095 6.99945 161.968 5.40974 164.171 5.40974C165.211 5.40974 166.092 6.16525 166.25 7.1726L170.735 34.4338L173.899 9.21875C174.182 6.98372 176.086 5.29956 178.337 5.29956C179.832 5.29956 180.982 6.6217 180.777 8.10124L175.3 47.419C175.079 49.0402 173.678 50.2522 172.042 50.2522C169.854 50.2522 167.981 48.6625 167.635 46.5061L163.259 20.1107L158.789 47.3403C158.521 49.0087 157.073 50.2522 155.373 50.2522C153.139 50.2522 151.265 48.6152 150.951 46.4117L150.935 46.3959Z" fill="#F5F5F5"/>
<path d="M5.38375 23.9394C4.03353 23.7492 2.84494 24.5289 2.79739 25.9552C2.74985 27.2579 3.84335 28.2754 5.13653 28.1232C5.56443 28.0757 5.92575 27.7904 5.92575 27.334C5.92575 26.9441 5.56443 26.4972 5.13653 26.5448C4.98439 26.5638 4.7752 26.5638 4.70864 26.5448C4.6611 26.5353 4.57552 26.4877 4.52798 26.4402C4.4424 26.3546 4.39485 26.2025 4.38534 26.0408C4.38534 25.8981 4.4519 25.6889 4.49945 25.6224C4.61355 25.4893 4.70864 25.4323 4.96538 25.4703C5.39326 25.5274 5.81165 25.3657 5.93527 24.9188C6.03987 24.5479 5.80214 24.0059 5.38375 23.9488V23.9394Z" fill="#7F8EF8"/>
<path d="M29.9832 40.4471C27.2731 41.9114 23.7645 39.791 23.7454 36.7291C23.7454 35.7117 22.1575 35.7117 22.167 36.7291C22.1956 41.0081 27.026 43.8322 30.7819 41.8068C31.6757 41.3218 30.877 39.9621 29.9832 40.4375V40.4471Z" fill="#7F8EF8"/>
<path d="M40.338 20.7825V18.8903C40.6042 19.1565 40.8039 19.4988 40.9085 19.9077C41.1462 20.8966 42.6771 20.4782 42.4298 19.4894C42.1351 18.2912 41.3269 17.4545 40.338 17.0266V15.4196C42.8102 13.109 43.4378 9.27699 42.1922 6.18667C41.5646 4.61774 40.4996 3.2675 39.0448 2.3927C37.0955 1.22313 34.8324 1.00443 32.6264 1.34674C31.4378 1.5274 30.2968 1.87923 29.1842 2.32614C28.6708 2.52581 28.0717 2.8396 27.5107 2.80158C26.9212 2.75403 26.4933 2.26909 26.0654 1.91726C24.5345 0.671623 22.4807 0.25324 20.5789 0.795235C19.6281 1.06148 18.7913 1.56544 18.0781 2.24056C17.9164 2.3927 17.8309 2.54484 17.6598 2.54484C17.479 2.54484 17.1748 2.37368 17.0036 2.32614C16.5567 2.19301 16.1003 2.11695 15.6343 2.05989C14.075 1.88874 12.525 2.32614 11.2603 3.24848C8.72154 5.11219 7.39983 8.3071 6.72472 11.3879C5.25087 10.1803 3.07337 9.88555 1.47591 11.2548C0.382409 12.1867 0.011569 13.8982 0.5916 15.2009C1.32377 16.8554 3.02583 17.6541 4.47115 18.5955V20.9727C3.34913 21.0773 2.26513 21.6574 1.45689 22.437C-1.01537 24.8427 -0.216637 29.0361 2.91173 30.4528C3.67242 30.7951 4.47115 30.9473 5.25086 30.9283C5.2889 30.9283 5.32693 30.9283 5.36497 30.9283C5.41252 30.9283 5.46956 30.9283 5.5076 30.9188C6.47749 36.624 7.20966 42.3578 7.70411 48.12C7.64706 48.3482 7.7041 48.5955 7.9228 48.8142C11.3174 52.1041 16.5092 52.9124 20.7596 50.8966C20.9783 50.792 21.1019 50.6303 21.1494 50.4592C22.9656 51.4195 24.9338 52.0471 26.9783 52.2373C29.9545 52.5131 33.2065 51.6382 35.4695 49.6224C37.666 47.6636 39.1589 45.0392 39.8054 42.1771C40.5567 38.8206 40.414 35.3118 40.5091 31.8982C41.7642 31.2326 42.7437 30.0059 43.2096 28.5702C44.0749 25.8887 42.7532 22.3134 40.3569 20.8015L40.338 20.7825ZM36.7912 19.3562C37.2191 18.586 37.9893 18.2247 38.75 18.2437V20.1455C38.0179 20.0028 37.2287 20.0314 36.3919 20.307C34.2429 21.0202 33.4157 23.1312 33.4441 25.2231C33.4061 25.3182 33.3776 25.4323 33.3871 25.5749V25.6319C32.7215 25.2326 31.9703 25.0234 31.2096 25.0044C31.105 24.9854 31.0004 24.9854 30.8959 25.0044C30.0591 25.0329 29.2223 25.2896 28.4996 25.746C27.4536 22.2754 23.5076 19.7841 19.8563 20.9632C18.6296 21.3625 17.7548 22.1328 17.2033 23.1026C15.5298 22.7603 13.8658 22.4275 12.1922 22.0852V19.4037C12.1922 19.3087 12.1732 19.2136 12.1541 19.1376C12.4585 16.3134 14.075 13.9648 16.6898 12.7572C19.3047 11.5495 22.4426 11.6161 25.1241 12.548C26.6739 13.0805 28.0908 13.9553 29.2603 15.0964C29.4886 15.8285 30.7722 15.7429 30.8102 14.8206C30.8959 12.624 32.4172 11.1121 34.6422 11.2453C36.6201 11.3594 38.4267 12.7952 38.7405 14.7825V16.6843C37.4378 16.6652 36.1256 17.2643 35.4124 18.5575C34.918 19.4513 36.2873 20.25 36.7818 19.3562H36.7912ZM22.9561 31.9268C21.5298 32.0409 20.0559 31.5083 19.1906 30.3482C18.5345 29.464 18.2398 28.3609 18.1067 27.2675C18.1637 27.1534 18.1827 27.0202 18.1637 26.8586C17.9545 25.2516 18.2208 23.54 19.7706 22.7128C21.0638 22.0187 22.7563 22.1898 24.0496 22.7889C25.7136 23.559 26.6644 24.9378 27.0924 26.6874C27.1303 26.8206 27.1494 26.9632 27.1684 27.0962C27.0829 27.296 27.1113 27.4861 27.2065 27.6383C27.1874 29.8539 25.1906 31.7556 22.9655 31.9362L22.9561 31.9268ZM2.24611 14.9822C1.70411 14.2215 1.74215 13.0709 2.47433 12.4434C3.72948 11.3594 5.70728 12.0726 6.42043 13.4323C6.43946 13.4989 6.46798 13.5654 6.50601 13.6224C6.52503 13.6605 6.53454 13.689 6.54404 13.7271C6.88636 14.6779 8.40775 14.2691 8.06544 13.3087C8.03691 13.2326 8.00839 13.1471 7.97035 13.0709C8.42677 10.3325 9.32059 7.36575 11.2508 5.32138C12.1352 4.38002 13.2762 3.68588 14.5884 3.60981C15.3871 3.56227 16.1574 3.7049 16.9085 3.96164C17.3364 4.10427 17.6502 4.28493 18.1067 4.12328C18.5915 3.95213 18.9244 3.55276 19.2952 3.21995C20.5789 2.07891 22.5757 1.81266 24.1256 2.56385C24.9624 2.96321 25.5424 3.74294 26.3887 4.13279C27.4157 4.60823 28.4521 4.29444 29.4505 3.90458C32.8451 2.54484 37.4664 1.91726 39.91 5.32138C41.6122 7.68904 41.6501 11.1026 39.9576 13.4418C39.1113 11.2834 37.0574 9.81899 34.6327 9.67637C33.3206 9.60029 31.9893 9.98064 30.9814 10.8269C30.2207 11.4545 29.7453 12.2912 29.479 13.2041C24.7151 9.41963 16.6233 8.93468 12.5821 13.9553C11.2984 15.5528 10.6708 17.483 10.5377 19.5083C10.5281 19.6605 10.5567 19.7936 10.6138 19.8982V21.7715C9.08287 21.4576 7.55196 21.1534 6.02106 20.8396V18.3482C6.02106 18.2722 6.02106 18.2057 5.99254 18.1391C5.99254 17.9014 5.88794 17.6731 5.64072 17.502C4.51869 16.7128 3.05435 16.1328 2.2366 14.9822H2.24611ZM10.6138 25.1565L8.28414 25.2041L8.25562 24.1391C8.25562 24.0059 8.21758 23.8823 8.17003 23.7872C8.07494 23.4354 7.95133 23.1026 7.78018 22.7984L10.6138 23.3689V25.1565ZM35.441 47.3499C34.1573 48.7951 32.5313 49.8126 30.7342 50.3261V48.7761C30.7342 47.7587 29.1558 47.7587 29.1558 48.7761V50.6303C28.7944 50.6684 28.4331 50.6874 28.0717 50.6874C25.3332 50.6874 22.6898 49.6699 20.4362 48.1675C17.8404 46.4275 15.7199 43.9933 14.3792 41.1787C13.9418 40.2563 12.5726 41.0646 13.01 41.9774C14.4552 45.0107 16.842 47.7301 19.7231 49.6129C16.2524 51.1438 12.0496 50.4211 9.25403 47.8823C8.75007 42.0535 8.00839 36.2532 7.02899 30.4909C7.50443 30.2817 7.95133 30.0059 8.3602 29.6351C9.1209 28.96 7.99887 27.838 7.23818 28.5131C4.79444 30.7001 0.677179 28.1042 1.64706 24.9473C1.99889 23.8063 3.02583 22.8839 4.17638 22.5892C5.47908 22.2564 6.34437 23.0076 6.65816 24.2437C6.65816 24.2627 6.66765 24.2817 6.67717 24.3008C6.69619 24.8522 6.70569 25.3942 6.72472 25.9457C6.72472 26.0788 6.76274 26.2025 6.81029 26.2975C6.90538 26.5638 7.14309 26.7825 7.52344 26.773L11.3079 26.6969C11.5171 26.6969 11.6882 26.6209 11.8118 26.5068C12.04 26.3927 12.2017 26.1645 12.2017 25.8411V23.6636C13.6851 23.968 15.1684 24.2627 16.6518 24.5669C16.5567 25.0044 16.5092 25.4704 16.5092 25.9363C16.4521 26.0409 16.4236 26.1739 16.4331 26.3356C16.6138 29.5686 17.9926 32.8396 21.5393 33.4006C24.6677 33.9045 28.0432 31.8506 28.6613 28.6557C28.7373 28.2658 28.7754 27.876 28.7754 27.4861C29.1842 27.0297 29.7072 26.735 30.2873 26.6019L30.3443 32.212C30.3443 32.4687 30.449 32.6589 30.601 32.7825C30.8197 33.0297 31.1811 33.1629 31.5614 32.9537C31.9703 32.7255 32.5503 32.4973 32.8926 32.4782C32.9972 32.4782 33.1018 32.4782 33.2065 32.4782H33.2159C33.2159 32.4782 33.3111 32.4973 33.349 32.5067C33.5772 32.5638 33.4536 32.5067 33.6534 32.6398C33.6913 32.6684 33.7104 32.6779 33.7294 32.6874L33.7484 32.7065C33.7959 32.7539 33.8435 32.8015 33.8816 32.849C33.9006 32.8776 33.9671 32.9632 33.9767 32.9917C34.0147 33.0583 34.0527 33.1248 34.0812 33.1914C34.0527 33.1534 34.1573 33.4386 34.1763 33.5147C34.1763 33.5527 34.1953 33.5717 34.1953 33.5907C34.1953 33.5907 34.1953 33.6098 34.1953 33.6288C34.1953 33.7144 34.2049 33.7999 34.2049 33.8856C34.2049 33.9521 34.2049 34.0186 34.1953 34.0757C34.1953 34.1138 34.1763 34.2184 34.1668 34.2468C34.1478 34.3134 34.1288 34.3895 34.1098 34.4561V34.5036L34.0812 34.5321C34.0432 34.6081 34.0052 34.6748 33.9576 34.7413V34.7603C33.9576 34.7603 33.9195 34.7889 33.8911 34.8173C33.8721 34.8364 33.777 34.922 33.7675 34.9314C33.7199 34.96 33.6724 34.9885 33.6153 35.0171L33.5868 35.0361C33.5868 35.0361 33.5488 35.036 33.5012 35.055C33.4536 35.0646 33.4061 35.0741 33.3586 35.0836C33.3395 35.0836 33.1779 35.0931 33.1494 35.0836C32.9688 35.0741 33.0733 35.0836 32.9592 35.0741C32.4172 34.979 31.9418 34.7127 31.4853 34.418C30.6296 33.857 29.8404 35.2262 30.6866 35.7872C32.2175 36.7856 34.5662 37.2231 35.479 35.1977C36.1351 33.7429 35.6406 31.7651 34.1003 31.0995C33.3776 30.7951 32.6074 30.8427 31.8847 31.0709L31.8371 26.6304C32.3221 26.7635 32.769 27.0202 33.1399 27.3816C33.2825 27.5337 33.4536 27.6002 33.6153 27.6098C34.0337 29.6922 35.0131 31.689 37.2476 32.2405C37.8087 32.3737 38.3507 32.4021 38.8641 32.3356C38.75 37.5274 39.0733 43.1755 35.4219 47.3023L35.441 47.3499ZM41.8879 26.8966C41.8118 28.7033 40.5091 30.7667 38.5408 30.8427C36.0495 30.9378 35.2699 28.475 35.0321 26.3832C35.0701 26.2786 35.0891 26.1645 35.0701 26.0218C34.899 24.586 35.0131 22.7603 36.4489 21.9806C37.5424 21.3911 38.8926 21.6858 39.853 22.3895C41.1937 23.3689 41.9354 25.2611 41.8783 26.8871L41.8879 26.8966Z" fill="#7F8EF8"/>
<path d="M24.8424 24.9661C24.7759 24.7474 24.6142 24.5573 24.348 24.4526C23.2164 24.0247 22.5033 25.0802 22.3512 26.0596C22.2181 26.944 22.2751 28.4654 23.2926 28.8361C25.3655 29.5969 26.1166 26.1832 24.8424 24.9661ZM23.73 27.3623C23.73 27.3623 23.73 27.3813 23.73 27.3908C23.73 27.4004 23.7014 27.3813 23.73 27.3623Z" fill="#7F8EF8"/>
<path d="M38.4372 24.9661C38.3706 24.7474 38.209 24.5573 37.9427 24.4526C36.8112 24.0247 36.098 25.0802 35.9459 26.0596C35.8128 26.944 35.8698 28.4654 36.8873 28.8361C38.9602 29.5969 39.7113 26.1832 38.4372 24.9661ZM37.3247 27.3623C37.3247 27.3623 37.3247 27.3813 37.3247 27.3908C37.3247 27.4004 37.2961 27.3813 37.3247 27.3623Z" fill="#7F8EF8"/>
<path d="M17.9737 19.3943C17.6885 20.3737 19.2193 20.792 19.4951 19.8127C20.0466 17.8824 22.7567 17.7398 23.6314 19.4894C24.0878 20.4022 25.4476 19.6035 25.0007 18.6907C23.4983 15.6859 18.8866 16.2184 17.9737 19.3943Z" fill="#7F8EF8"/>
</g>
<defs>
<clipPath id="clip0_311_27">
<rect width="300" height="52.7586" fill="white"/>
</clipPath>
</defs>
</svg>
