<svg width="107" height="51" viewBox="0 0 107 51" fill="none" xmlns="http://www.w3.org/2000/svg">
<path d="M59.1217 50.8355C56.4285 50.8355 54.1765 50.3116 52.3658 49.2545C50.555 48.2067 49.1946 46.6625 48.2662 44.6311C47.871 43.7579 47.5493 42.8019 47.3011 41.7541C46.722 39.2999 48.3122 36.8457 50.7848 36.3585C52.329 36.0552 53.7721 37.1122 54.0203 38.6656C54.1122 39.2631 54.2317 39.833 54.3788 40.3661C54.728 41.6989 55.2612 42.7192 55.9873 43.4362C56.7043 44.1531 57.6602 44.5116 58.8367 44.5116C60.1695 44.5116 61.1071 44.1163 61.6586 43.3259C62.2101 42.5354 62.4859 41.5243 62.4859 40.311C62.4859 38.3531 62.0447 36.7538 61.1531 35.4945C60.2707 34.2444 59.0849 32.9851 57.6142 31.7259L51.9705 26.7439C50.3803 25.3836 49.1211 23.8577 48.1743 22.1757C47.2368 20.4936 46.7588 18.4254 46.7588 15.9528C46.7588 12.414 47.7883 9.68408 49.8564 7.763C51.9246 5.84193 54.7464 4.88599 58.322 4.88599C60.4269 4.88599 62.1733 5.2077 63.5797 5.85112C64.986 6.49454 66.0982 7.39533 66.9255 8.53511C67.7527 9.67489 68.3778 10.9801 68.7822 12.4416C68.9109 12.892 69.0212 13.3608 69.1223 13.8296C69.49 15.5852 68.2951 17.2856 66.5302 17.5982C64.4805 17.9566 62.5594 16.5963 62.1274 14.5557V14.5189C61.8792 13.4159 61.4564 12.5427 60.8497 11.9177C60.2431 11.2926 59.3423 10.9801 58.1657 10.9801C56.9892 10.9801 56.0149 11.3754 55.3715 12.1658C54.728 12.9563 54.4063 13.949 54.4063 15.1256C54.4063 16.6422 54.7188 17.8831 55.3439 18.8574C55.9689 19.8318 56.8789 20.8429 58.0554 21.8723L63.644 26.7991C65.4916 28.3525 67.0634 30.1633 68.3778 32.2498C69.683 34.3363 70.3448 36.8549 70.3448 39.8054C70.3448 41.9471 69.876 43.8498 68.9293 45.5043C67.9917 47.168 66.6773 48.464 64.9952 49.4108C63.3131 50.3483 61.3461 50.8263 59.1033 50.8263L59.1217 50.8355Z" fill="#F5F5F5"/>
<path d="M76.6584 46.395L71.557 10.4829C71.1801 7.79886 73.2574 5.39062 75.9782 5.39062C76.9617 5.39062 77.7981 6.12597 77.9176 7.10029L81.4105 34.4549L85.4549 9.26035C85.8042 7.10029 87.6701 5.51012 89.8577 5.51012C90.8872 5.51012 91.7696 6.25465 91.935 7.27493L96.4022 34.4641L99.5642 9.30631C99.8491 7.07271 101.743 5.39982 103.995 5.39982C105.484 5.39982 106.623 6.71424 106.421 8.19411L100.952 47.4061C100.722 49.033 99.3344 50.2371 97.6983 50.2371C95.5198 50.2371 93.6539 48.6562 93.2954 46.5053L88.9293 20.1801L84.4805 47.3417C84.2048 49.0146 82.7617 50.2371 81.0704 50.2371C78.846 50.2371 76.9617 48.601 76.6492 46.4042L76.6584 46.395Z" fill="#F5F5F5"/>
<path d="M5.2223 23.4453C3.91708 23.2615 2.76811 24.0152 2.72215 25.394C2.67619 26.6532 3.73324 27.6367 4.98332 27.4897C5.39694 27.4437 5.74623 27.168 5.74623 26.7268C5.74623 26.3499 5.39694 25.9179 4.98332 25.9638C4.83625 25.9822 4.63403 25.9822 4.56969 25.9638C4.52373 25.9547 4.441 25.9087 4.39504 25.8627C4.31232 25.78 4.26636 25.6329 4.25717 25.4767C4.25717 25.3388 4.32151 25.1366 4.36747 25.0722C4.47777 24.9436 4.56969 24.8884 4.81786 24.9252C5.23149 24.9803 5.63593 24.8241 5.75543 24.3921C5.85653 24.0336 5.62674 23.5096 5.2223 23.4545V23.4453Z" fill="#7F8EF8"/>
<path d="M29.001 39.4024C26.3813 40.8179 22.9896 38.7682 22.9712 35.8084C22.9712 34.8249 21.4362 34.8249 21.4454 35.8084C21.4729 39.9447 26.1423 42.6747 29.7731 40.7168C30.6371 40.248 29.865 38.9336 29.001 39.3932V39.4024Z" fill="#7F8EF8"/>
<path d="M39.0109 20.3934V18.5643C39.2683 18.8217 39.4613 19.1526 39.5624 19.5478C39.7922 20.5037 41.2721 20.0993 41.0331 19.1434C40.7482 17.9852 39.9669 17.1763 39.0109 16.7627V15.2093C41.4008 12.9757 42.0074 9.27143 40.8033 6.28412C40.1967 4.76748 39.1672 3.46225 37.7609 2.61661C35.8766 1.48603 33.6889 1.27462 31.5564 1.60552C30.4075 1.78016 29.3045 2.12026 28.229 2.55227C27.7327 2.7453 27.1536 3.04862 26.6113 3.01186C26.0414 2.9659 25.6278 2.49712 25.2141 2.15702C23.7343 0.952906 21.7489 0.548469 19.9105 1.0724C18.9913 1.32977 18.1825 1.81693 17.4931 2.46954C17.3368 2.61661 17.2541 2.76368 17.0886 2.76368C16.914 2.76368 16.6199 2.59823 16.4544 2.55227C16.0224 2.42358 15.5812 2.35005 15.1308 2.2949C13.6233 2.12945 12.1251 2.55227 10.9026 3.44387C8.4484 5.24545 7.17075 8.33387 6.51814 11.312C5.09342 10.1446 2.9885 9.8597 1.44429 11.1833C0.38724 12.0841 0.0287615 13.7386 0.589458 14.9979C1.29722 16.5973 2.94255 17.3694 4.33969 18.2793V20.5773C3.25506 20.6784 2.20721 21.2391 1.42591 21.9928C-0.963943 24.3183 -0.191838 28.3719 2.83225 29.7414C3.56758 30.0723 4.33969 30.2194 5.09341 30.201C5.13018 30.201 5.16695 30.201 5.20372 30.201C5.24968 30.201 5.30482 30.201 5.34159 30.1918C6.27914 35.7069 6.98691 41.2495 7.46488 46.8197C7.40973 47.0403 7.46488 47.2793 7.67629 47.4907C10.9577 50.671 15.9764 51.4523 20.0851 49.5037C20.2966 49.4026 20.416 49.2463 20.462 49.0809C22.2176 50.0092 24.1203 50.6159 26.0965 50.7997C28.9736 51.0663 32.1171 50.2206 34.3048 48.272C36.4281 46.3785 37.8712 43.8416 38.4962 41.0749C39.2223 37.8302 39.0845 34.4384 39.1764 31.1386C40.3897 30.4952 41.3365 29.3094 41.7868 27.9215C42.6233 25.3294 41.3456 21.8733 39.0293 20.4118L39.0109 20.3934ZM35.5824 19.0147C35.996 18.2701 36.7406 17.9209 37.4759 17.9392V19.7776C36.7682 19.6397 36.0052 19.6673 35.1964 19.9339C33.119 20.6232 32.3194 22.6638 32.3469 24.686C32.3102 24.7779 32.2826 24.8882 32.2918 25.0261V25.0812C31.6484 24.6952 30.9222 24.493 30.1869 24.4746C30.0858 24.4562 29.9847 24.4562 29.8835 24.4746C29.0747 24.5021 28.2658 24.7503 27.5672 25.1915C26.5561 21.8365 22.7416 19.4283 19.2119 20.5681C18.0262 20.9541 17.1806 21.6987 16.6474 22.6362C15.0297 22.3053 13.4211 21.9836 11.8034 21.6527V19.0606C11.8034 18.9687 11.785 18.8768 11.7666 18.8033C12.0608 16.0733 13.6233 13.803 16.1511 12.6356C18.6788 11.4683 21.7121 11.5326 24.3042 12.4334C25.8024 12.9481 27.172 13.7938 28.3026 14.8968C28.5232 15.6045 29.764 15.5218 29.8008 14.6302C29.8835 12.5069 31.3542 11.0454 33.5051 11.1741C35.417 11.2844 37.1634 12.6724 37.4667 14.5935V16.4318C36.2075 16.4134 34.939 16.9925 34.2496 18.2426C33.7716 19.1066 35.0953 19.8787 35.5732 19.0147H35.5824ZM22.2084 31.1662C20.8297 31.2765 19.405 30.7617 18.5685 29.6403C17.9343 28.7855 17.6493 27.7193 17.5206 26.6622C17.5758 26.5519 17.5942 26.4232 17.5758 26.267C17.3736 24.7136 17.6309 23.059 19.1292 22.2594C20.3793 21.5884 22.0154 21.7538 23.2655 22.3329C24.874 23.0774 25.7932 24.4102 26.2068 26.1015C26.2436 26.2302 26.262 26.3681 26.2804 26.4968C26.1977 26.6898 26.2252 26.8736 26.3171 27.0207C26.2988 29.1624 24.3685 31.0007 22.2176 31.1754L22.2084 31.1662ZM2.18882 14.7865C1.66489 14.0511 1.70166 12.9389 2.40943 12.3323C3.62274 11.2844 5.53462 11.9738 6.224 13.2882C6.24238 13.3526 6.26996 13.4169 6.30672 13.4721C6.32511 13.5088 6.3343 13.5364 6.34349 13.5732C6.67439 14.4923 8.14507 14.0971 7.81417 13.1687C7.78659 13.0952 7.75902 13.0125 7.72225 12.9389C8.16346 10.2917 9.02748 7.42389 10.8934 5.44767C11.7482 4.53769 12.8512 3.86669 14.1197 3.79315C14.8918 3.7472 15.6363 3.88507 16.3625 4.13325C16.7761 4.27113 17.0794 4.44577 17.5206 4.28951C17.9894 4.12406 18.3111 3.738 18.6696 3.41629C19.9105 2.31328 21.8408 2.05592 23.339 2.78206C24.1479 3.16812 24.7086 3.92184 25.5267 4.2987C26.5194 4.75829 27.5213 4.45496 28.4864 4.0781C31.7678 2.76368 36.235 2.15703 38.5973 5.44767C40.2426 7.73641 40.2794 11.0362 38.6433 13.2974C37.8252 11.2109 35.8398 9.79536 33.4959 9.65749C32.2274 9.58395 30.9406 9.95162 29.9663 10.7697C29.2309 11.3763 28.7713 12.1852 28.514 13.0676C23.9089 9.40931 16.0867 8.94053 12.1802 13.7938C10.9394 15.338 10.3327 17.2039 10.204 19.1617C10.1948 19.3088 10.2224 19.4375 10.2776 19.5386V21.3494C8.79768 21.0461 7.31781 20.7519 5.83794 20.4486V18.0404C5.83794 17.9668 5.83794 17.9025 5.81037 17.8381C5.81037 17.6083 5.70926 17.3877 5.47028 17.2223C4.38565 16.4594 2.97012 15.8987 2.17963 14.7865H2.18882ZM10.2776 24.6216L8.02558 24.6676L7.99801 23.6381C7.99801 23.5094 7.96124 23.39 7.91528 23.298C7.82336 22.9579 7.70387 22.6362 7.53842 22.3421L10.2776 22.8936V24.6216ZM34.2772 46.0752C33.0363 47.4723 31.4645 48.4558 29.7273 48.9522V47.4539C29.7273 46.4704 28.2015 46.4704 28.2015 47.4539V49.2463C27.8522 49.2831 27.5029 49.3015 27.1536 49.3015C24.5064 49.3015 21.9511 48.318 19.7726 46.8657C17.2633 45.1836 15.2135 42.8305 13.9175 40.1097C13.4947 39.2181 12.1711 39.9994 12.5939 40.8818C13.991 43.814 16.2981 46.4428 19.0832 48.2628C15.7283 49.7427 11.6655 49.0441 8.96314 46.5899C8.47597 40.9554 7.75902 35.3484 6.81227 29.7782C7.27186 29.576 7.70386 29.3094 8.09911 28.951C8.83445 28.2983 7.74982 27.2137 7.01448 27.8663C4.65221 29.9804 0.672184 27.4711 1.60974 24.4194C1.94984 23.3164 2.94255 22.4248 4.05475 22.1399C5.31402 21.8182 6.15047 22.5443 6.45379 23.7392C6.45379 23.7576 6.46298 23.776 6.47217 23.7944C6.49056 24.3275 6.49975 24.8514 6.51814 25.3846C6.51814 25.5132 6.5549 25.6327 6.60086 25.7247C6.69278 25.982 6.92257 26.1934 7.29024 26.1842L10.9486 26.1107C11.1508 26.1107 11.3162 26.0372 11.4357 25.9269C11.6563 25.8166 11.8126 25.596 11.8126 25.2834V23.1785C13.2465 23.4727 14.6804 23.7576 16.1143 24.0518C16.0224 24.4746 15.9764 24.925 15.9764 25.3754C15.9213 25.4765 15.8937 25.6052 15.9029 25.7614C16.0775 28.8866 17.4103 32.0486 20.8389 32.5909C23.8629 33.078 27.126 31.0926 27.7235 28.0042C27.797 27.6273 27.8338 27.2505 27.8338 26.8736C28.229 26.4324 28.7346 26.1475 29.2953 26.0188L29.3504 31.4419C29.3504 31.6901 29.4515 31.8739 29.5986 31.9934C29.81 32.2324 30.1593 32.3611 30.527 32.1589C30.9222 31.9383 31.4829 31.7177 31.8138 31.6993C31.9149 31.6993 32.016 31.6993 32.1171 31.6993H32.1263C32.1263 31.6993 32.2182 31.7177 32.255 31.7269C32.4756 31.782 32.3561 31.7269 32.5491 31.8555C32.5859 31.8831 32.6043 31.8923 32.6227 31.9015L32.6411 31.9199C32.687 31.9658 32.733 32.0118 32.7697 32.0578C32.7881 32.0853 32.8525 32.1681 32.8617 32.1956C32.8984 32.26 32.9352 32.3243 32.9628 32.3887C32.9352 32.3519 33.0363 32.6276 33.0547 32.7012C33.0547 32.738 33.0731 32.7563 33.0731 32.7747C33.0731 32.7747 33.0731 32.7931 33.0731 32.8115C33.0731 32.8942 33.0823 32.9769 33.0823 33.0597C33.0823 33.124 33.0823 33.1883 33.0731 33.2435C33.0731 33.2803 33.0547 33.3814 33.0455 33.4089C33.0271 33.4733 33.0087 33.5468 32.9903 33.6112V33.6571L32.9628 33.6847C32.926 33.7582 32.8892 33.8226 32.8433 33.8869V33.9053C32.8433 33.9053 32.8065 33.9329 32.7789 33.9605C32.7606 33.9788 32.6686 34.0616 32.6594 34.0708C32.6135 34.0983 32.5675 34.1259 32.5124 34.1535L32.4848 34.1719C32.4848 34.1719 32.448 34.1719 32.4021 34.1902C32.3561 34.1994 32.3102 34.2086 32.2642 34.2178C32.2458 34.2178 32.0896 34.227 32.062 34.2178C31.8873 34.2086 31.9885 34.2178 31.8782 34.2086C31.3542 34.1167 30.8946 33.8593 30.4534 33.5744C29.6262 33.0321 28.8633 34.3557 29.6813 34.898C31.1612 35.8631 33.4316 36.286 34.314 34.3281C34.9482 32.9218 34.4702 31.0099 32.9812 30.3665C32.2826 30.0723 31.5381 30.1183 30.8395 30.3389L30.7935 26.0464C31.2623 26.175 31.6943 26.4232 32.0528 26.7725C32.1907 26.9196 32.3561 26.9839 32.5124 26.9931C32.9168 29.0061 33.8636 30.9364 36.0236 31.4695C36.5659 31.5982 37.0899 31.6258 37.5862 31.5614C37.4759 36.5801 37.7884 42.04 34.2588 46.0292L34.2772 46.0752ZM40.5092 26.3037C40.4357 28.0502 39.1764 30.0448 37.2737 30.1183C34.8655 30.2102 34.1117 27.8296 33.8819 25.8074C33.9187 25.7063 33.9371 25.596 33.9187 25.4581C33.7533 24.0701 33.8636 22.3053 35.2515 21.5516C36.3086 20.9817 37.6138 21.2667 38.5422 21.9468C39.8382 22.8936 40.5552 24.7228 40.5 26.2945L40.5092 26.3037Z" fill="#7F8EF8"/>
<path d="M24.0311 24.4372C23.9668 24.2258 23.8105 24.0419 23.5531 23.9408C22.4593 23.5272 21.7699 24.5475 21.6229 25.4942C21.4942 26.349 21.5493 27.8197 22.5329 28.1782C24.5367 28.9135 25.2628 25.6137 24.0311 24.4372ZM22.9557 26.7535C22.9557 26.7535 22.9557 26.7719 22.9557 26.7811C22.9557 26.7903 22.9281 26.7719 22.9557 26.7535Z" fill="#7F8EF8"/>
<path d="M37.1737 24.4372C37.1093 24.2258 36.9531 24.0419 36.6957 23.9408C35.6019 23.5272 34.9125 24.5475 34.7654 25.4942C34.6368 26.349 34.6919 27.8197 35.6754 28.1782C37.6792 28.9135 38.4054 25.6137 37.1737 24.4372ZM36.0983 26.7535C36.0983 26.7535 36.0983 26.7719 36.0983 26.7811C36.0983 26.7903 36.0707 26.7719 36.0983 26.7535Z" fill="#7F8EF8"/>
<path d="M17.3915 19.0511C17.1158 19.9979 18.5956 20.4023 18.8622 19.4556C19.3953 17.5896 22.015 17.4518 22.8606 19.143C23.3018 20.0254 24.6162 19.2533 24.1842 18.3709C22.7319 15.4663 18.2739 15.9811 17.3915 19.0511V19.0511Z" fill="#7F8EF8"/>
</svg>
